<svg id="svg" version="1.1" width="400" height="104" xmlns="http://www.w3.org/2000/svg" xmlns:xlink="http://www.w3.org/1999/xlink" style="display: block;"><g id="svgg"><path id="path0" d="" stroke="none" fill="#ffffff" fill-rule="evenodd"></path><path id="path1" d="M297.408 39.333 C 297.408 42.313,297.430 43.531,297.458 42.042 C 297.486 40.552,297.486 38.115,297.458 36.625 C 297.430 35.135,297.408 36.354,297.408 39.333 M279.387 71.167 C 279.387 71.762,279.417 72.006,279.454 71.708 C 279.491 71.410,279.491 70.923,279.454 70.625 C 279.417 70.327,279.387 70.571,279.387 71.167 M279.333 78.216 L 279.416 81.917 279.461 78.345 C 279.486 76.381,279.449 74.716,279.378 74.645 C 279.308 74.574,279.287 76.181,279.333 78.216 " stroke="none" fill="#0000ff" fill-rule="evenodd"></path><path id="path2" d="M41.083 16.000 C 41.027 16.092,40.728 16.167,40.419 16.167 C 40.110 16.167,39.745 16.279,39.607 16.417 C 39.470 16.554,39.289 16.667,39.207 16.667 C 38.976 16.667,38.672 17.354,38.631 17.971 C 38.611 18.276,38.524 18.569,38.438 18.622 C 38.348 18.678,38.339 18.626,38.417 18.500 C 38.506 18.356,38.486 18.322,38.359 18.401 C 38.031 18.604,38.088 45.733,38.417 45.606 C 38.624 45.527,38.667 45.708,38.667 46.672 C 38.667 47.335,38.738 47.833,38.833 47.833 C 38.925 47.833,39.000 47.979,39.000 48.157 C 39.000 48.335,39.075 48.527,39.167 48.583 C 39.258 48.640,39.333 48.832,39.333 49.010 C 39.333 49.188,39.446 49.333,39.583 49.333 C 39.721 49.333,39.833 49.446,39.833 49.583 C 39.833 49.721,39.908 49.833,40.000 49.833 C 40.092 49.833,40.167 49.983,40.167 50.167 C 40.167 50.352,40.278 50.500,40.417 50.500 C 40.554 50.500,40.667 50.612,40.667 50.750 C 40.667 50.889,40.815 51.000,41.000 51.000 C 41.183 51.000,41.333 51.075,41.333 51.167 C 41.333 51.258,41.446 51.333,41.583 51.333 C 41.721 51.333,41.833 51.414,41.833 51.512 C 41.833 51.800,42.283 52.167,42.637 52.167 C 42.817 52.167,43.008 52.279,43.060 52.417 C 43.113 52.554,43.309 52.667,43.495 52.667 C 43.681 52.667,43.833 52.742,43.833 52.833 C 43.833 52.925,44.021 53.000,44.250 53.000 C 44.479 53.000,44.667 53.075,44.667 53.167 C 44.667 53.258,44.996 53.333,45.399 53.333 C 45.896 53.333,46.162 53.414,46.227 53.583 C 46.294 53.759,46.569 53.833,47.152 53.833 C 47.607 53.833,48.027 53.908,48.083 54.000 C 48.145 54.100,49.248 54.167,50.833 54.167 C 52.418 54.167,53.522 54.234,53.583 54.333 C 53.648 54.438,55.387 54.500,58.250 54.500 C 61.113 54.500,62.852 54.438,62.917 54.333 C 62.978 54.234,64.057 54.167,65.593 54.167 C 67.198 54.167,68.167 54.104,68.167 54.000 C 68.167 53.908,68.582 53.833,69.089 53.833 C 69.754 53.833,70.037 53.764,70.106 53.583 C 70.166 53.429,70.419 53.333,70.768 53.333 C 71.079 53.333,71.333 53.258,71.333 53.167 C 71.333 53.075,71.596 53.000,71.917 53.000 C 72.237 53.000,72.500 52.933,72.500 52.851 C 72.500 52.770,72.688 52.656,72.917 52.598 C 73.146 52.541,73.333 52.420,73.333 52.330 C 73.333 52.240,73.446 52.167,73.583 52.167 C 73.721 52.167,73.833 52.092,73.833 52.000 C 73.833 51.908,73.983 51.833,74.167 51.833 C 74.352 51.833,74.500 51.722,74.500 51.583 C 74.500 51.446,74.578 51.333,74.673 51.333 C 74.991 51.333,76.167 50.031,76.167 49.680 C 76.167 49.489,76.252 49.333,76.357 49.333 C 76.657 49.333,76.989 48.792,76.995 48.292 C 76.998 48.040,77.075 47.833,77.167 47.833 C 77.258 47.833,77.333 47.541,77.333 47.184 C 77.333 46.762,77.420 46.502,77.583 46.440 C 77.910 46.314,77.966 32.602,77.641 32.401 C 77.514 32.322,77.494 32.356,77.583 32.500 C 77.663 32.628,77.652 32.678,77.559 32.620 C 77.471 32.566,77.381 32.198,77.358 31.802 C 77.335 31.407,77.245 31.058,77.158 31.028 C 77.071 30.997,77.000 30.743,77.000 30.464 C 77.000 30.135,76.852 29.818,76.583 29.569 C 76.354 29.356,76.167 29.099,76.167 28.997 C 76.167 28.712,74.390 27.000,74.094 27.000 C 73.951 27.000,73.833 26.925,73.833 26.833 C 73.833 26.742,73.729 26.667,73.601 26.667 C 73.473 26.667,73.326 26.554,73.273 26.417 C 73.220 26.279,73.025 26.167,72.839 26.167 C 72.652 26.167,72.500 26.092,72.500 26.000 C 72.500 25.908,72.270 25.833,71.988 25.833 C 71.707 25.833,71.364 25.721,71.226 25.583 C 71.089 25.446,70.798 25.333,70.581 25.333 C 70.364 25.333,70.140 25.258,70.083 25.167 C 70.027 25.075,69.572 25.000,69.073 25.000 C 68.575 25.000,68.167 24.925,68.167 24.833 C 68.167 24.724,64.250 24.667,56.750 24.667 L 45.333 24.667 45.333 21.192 C 45.333 17.457,45.186 16.667,44.488 16.667 C 44.311 16.667,44.167 16.554,44.167 16.417 C 44.167 16.242,43.991 16.167,43.583 16.167 C 43.262 16.167,43.000 16.092,43.000 16.000 C 43.000 15.908,42.592 15.833,42.093 15.833 C 41.594 15.833,41.140 15.908,41.083 16.000 M122.167 16.000 C 122.167 16.092,121.904 16.167,121.583 16.167 C 121.176 16.167,121.000 16.242,121.000 16.417 C 121.000 16.554,120.855 16.667,120.679 16.667 C 119.817 16.667,119.833 16.305,119.833 35.359 C 119.833 47.009,119.890 53.000,120.000 53.000 C 120.092 53.000,120.167 53.099,120.167 53.221 C 120.167 53.521,120.875 54.167,121.205 54.167 C 121.352 54.167,121.504 54.260,121.542 54.375 C 121.640 54.669,124.861 54.668,124.959 54.374 C 124.997 54.260,125.155 54.167,125.310 54.167 C 125.634 54.167,126.167 53.607,126.167 53.266 C 126.167 53.139,126.279 52.992,126.417 52.940 C 126.630 52.858,126.667 52.189,126.667 48.339 C 126.667 43.990,126.678 43.833,126.990 43.833 C 127.168 43.833,127.360 43.908,127.417 44.000 C 127.473 44.092,127.657 44.167,127.825 44.167 C 127.993 44.167,128.174 44.279,128.227 44.417 C 128.280 44.554,128.475 44.667,128.661 44.667 C 128.848 44.667,129.001 44.723,129.001 44.792 C 129.003 44.923,129.794 45.333,130.045 45.333 C 130.125 45.333,130.295 45.427,130.423 45.542 C 131.016 46.074,131.175 46.167,131.493 46.167 C 131.680 46.167,131.833 46.242,131.833 46.333 C 131.833 46.425,131.986 46.500,132.172 46.500 C 132.358 46.500,132.554 46.612,132.606 46.750 C 132.659 46.887,132.882 47.000,133.101 47.000 C 133.321 47.000,133.500 47.075,133.500 47.167 C 133.500 47.258,133.641 47.333,133.813 47.333 C 133.985 47.333,134.219 47.446,134.333 47.583 C 134.447 47.721,134.757 47.833,135.020 47.833 C 135.284 47.833,135.500 47.908,135.500 48.000 C 135.500 48.092,135.642 48.167,135.816 48.167 C 135.989 48.167,136.176 48.284,136.231 48.427 C 136.286 48.571,136.400 48.645,136.485 48.592 C 136.570 48.540,136.753 48.610,136.891 48.748 C 137.030 48.887,137.298 49.000,137.488 49.000 C 137.678 49.000,137.833 49.075,137.833 49.167 C 137.833 49.258,138.021 49.333,138.250 49.333 C 138.509 49.333,138.667 49.428,138.667 49.583 C 138.667 49.725,138.816 49.833,139.010 49.833 C 139.199 49.833,139.307 49.908,139.250 50.000 C 139.193 50.092,139.301 50.167,139.490 50.167 C 139.679 50.167,139.833 50.240,139.833 50.330 C 139.833 50.420,140.021 50.541,140.250 50.598 C 140.479 50.656,140.667 50.770,140.667 50.851 C 140.667 50.933,140.812 51.000,140.990 51.000 C 141.168 51.000,141.360 51.075,141.417 51.167 C 141.473 51.258,141.657 51.333,141.825 51.333 C 141.993 51.333,142.174 51.446,142.227 51.583 C 142.280 51.721,142.475 51.833,142.661 51.833 C 142.848 51.833,143.000 51.908,143.000 52.000 C 143.000 52.092,143.154 52.167,143.341 52.167 C 143.529 52.167,143.856 52.354,144.069 52.583 C 144.281 52.813,144.573 53.000,144.718 53.000 C 144.862 53.000,145.027 53.075,145.083 53.167 C 145.140 53.258,145.324 53.333,145.492 53.333 C 145.660 53.333,145.841 53.446,145.894 53.583 C 145.946 53.721,146.142 53.833,146.328 53.833 C 146.514 53.833,146.667 53.908,146.667 54.000 C 146.667 54.092,146.822 54.167,147.012 54.167 C 147.202 54.167,147.473 54.283,147.615 54.425 C 147.938 54.747,149.756 54.721,150.087 54.389 C 150.210 54.267,150.433 54.167,150.583 54.167 C 150.883 54.167,151.333 53.785,151.333 53.530 C 151.333 53.441,151.446 53.326,151.583 53.273 C 151.721 53.220,151.833 53.025,151.833 52.839 C 151.833 52.652,151.908 52.500,152.000 52.500 C 152.097 52.500,152.167 51.944,152.167 51.167 C 152.167 50.389,152.097 49.833,152.000 49.833 C 151.908 49.833,151.833 49.704,151.833 49.547 C 151.833 49.169,150.872 48.344,150.288 48.221 C 150.034 48.167,149.786 48.058,149.737 47.978 C 149.687 47.899,149.509 47.833,149.341 47.833 C 149.173 47.833,148.992 47.721,148.940 47.583 C 148.887 47.446,148.691 47.333,148.505 47.333 C 148.319 47.333,148.167 47.258,148.167 47.167 C 148.167 47.075,147.979 47.000,147.750 47.000 C 147.521 47.000,147.333 46.925,147.333 46.833 C 147.333 46.742,147.191 46.667,147.018 46.667 C 146.844 46.667,146.659 46.554,146.606 46.417 C 146.554 46.279,146.358 46.167,146.172 46.167 C 145.986 46.167,145.833 46.092,145.833 46.000 C 145.833 45.908,145.654 45.833,145.434 45.833 C 145.215 45.833,145.000 45.740,144.955 45.625 C 144.865 45.389,143.581 44.667,143.252 44.667 C 143.133 44.667,142.992 44.554,142.940 44.417 C 142.887 44.279,142.691 44.167,142.505 44.167 C 142.319 44.167,142.167 44.092,142.167 44.000 C 142.167 43.908,141.987 43.833,141.768 43.833 C 141.548 43.833,141.326 43.721,141.273 43.583 C 141.220 43.446,141.025 43.333,140.839 43.333 C 140.652 43.333,140.500 43.258,140.500 43.167 C 140.500 43.075,140.350 43.000,140.167 43.000 C 139.983 43.000,139.833 42.925,139.833 42.833 C 139.833 42.742,139.646 42.667,139.417 42.667 C 139.157 42.667,139.000 42.572,139.000 42.417 C 139.000 42.261,138.843 42.167,138.583 42.167 C 138.354 42.167,138.167 42.092,138.167 42.000 C 138.167 41.908,137.979 41.833,137.750 41.833 C 137.521 41.833,137.333 41.764,137.333 41.679 C 137.333 41.501,136.392 41.000,136.058 41.000 C 135.934 41.000,135.833 40.925,135.833 40.833 C 135.833 40.742,135.604 40.667,135.323 40.667 C 135.043 40.667,134.855 40.600,134.906 40.517 C 135.011 40.347,134.625 40.167,134.153 40.167 C 133.977 40.167,133.833 40.092,133.833 40.000 C 133.833 39.908,133.654 39.833,133.434 39.833 C 133.215 39.833,132.992 39.721,132.940 39.583 C 132.887 39.446,132.691 39.333,132.505 39.333 C 132.319 39.333,132.167 39.290,132.167 39.238 C 132.167 39.041,132.653 38.667,132.910 38.667 C 133.057 38.667,133.220 38.554,133.273 38.417 C 133.328 38.274,133.576 38.167,133.851 38.167 C 134.116 38.167,134.333 38.092,134.333 38.000 C 134.333 37.908,134.513 37.833,134.732 37.833 C 134.952 37.833,135.174 37.721,135.227 37.583 C 135.280 37.446,135.513 37.333,135.745 37.333 C 135.977 37.333,136.167 37.258,136.167 37.167 C 136.167 37.075,136.254 37.000,136.361 37.000 C 136.672 37.000,137.833 36.449,137.833 36.301 C 137.833 36.227,137.983 36.167,138.167 36.167 C 138.350 36.167,138.500 36.092,138.500 36.000 C 138.500 35.908,138.688 35.833,138.917 35.833 C 139.176 35.833,139.333 35.739,139.333 35.583 C 139.333 35.428,139.491 35.333,139.750 35.333 C 139.979 35.333,140.167 35.258,140.167 35.167 C 140.167 35.075,140.354 35.000,140.583 35.000 C 140.813 35.000,141.000 34.933,141.000 34.851 C 141.000 34.770,141.188 34.656,141.417 34.598 C 141.646 34.541,141.833 34.420,141.833 34.330 C 141.833 34.240,141.979 34.167,142.157 34.167 C 142.335 34.167,142.527 34.092,142.583 34.000 C 142.640 33.908,142.832 33.833,143.010 33.833 C 143.188 33.833,143.333 33.721,143.333 33.583 C 143.333 33.428,143.491 33.333,143.750 33.333 C 143.979 33.333,144.167 33.258,144.167 33.167 C 144.167 33.075,144.354 33.000,144.583 33.000 C 144.813 33.000,145.000 32.925,145.000 32.833 C 145.000 32.742,145.152 32.667,145.339 32.667 C 145.525 32.667,145.720 32.554,145.773 32.417 C 145.826 32.279,146.007 32.167,146.175 32.167 C 146.343 32.167,146.527 32.092,146.583 32.000 C 146.640 31.908,146.860 31.833,147.073 31.833 C 147.285 31.833,147.553 31.721,147.667 31.583 C 147.781 31.446,148.090 31.333,148.354 31.333 C 148.618 31.333,148.833 31.258,148.833 31.167 C 148.833 31.075,148.977 31.000,149.153 31.000 C 149.514 31.000,150.497 30.483,150.499 30.292 C 150.500 30.223,150.616 30.167,150.758 30.167 C 150.982 30.167,151.295 29.884,151.997 29.049 C 152.216 28.788,152.219 26.385,152.000 26.250 C 151.908 26.193,151.833 26.001,151.833 25.823 C 151.833 25.646,151.721 25.500,151.583 25.500 C 151.446 25.500,151.333 25.415,151.333 25.310 C 151.333 25.060,150.822 24.679,150.476 24.672 C 150.326 24.669,150.159 24.554,150.106 24.417 C 150.036 24.232,149.744 24.167,149.000 24.167 C 148.256 24.167,147.964 24.232,147.894 24.417 C 147.834 24.571,147.581 24.667,147.232 24.667 C 146.921 24.667,146.667 24.742,146.667 24.833 C 146.667 24.925,146.560 25.000,146.430 25.000 C 146.152 25.000,145.108 25.527,145.028 25.708 C 144.997 25.777,144.828 25.833,144.653 25.833 C 144.477 25.833,144.333 25.908,144.333 26.000 C 144.333 26.092,144.146 26.167,143.917 26.167 C 143.657 26.167,143.500 26.261,143.500 26.417 C 143.500 26.572,143.343 26.667,143.083 26.667 C 142.854 26.667,142.667 26.742,142.667 26.833 C 142.667 26.925,142.479 27.000,142.250 27.000 C 142.021 27.000,141.833 27.074,141.833 27.163 C 141.833 27.253,141.646 27.374,141.417 27.432 C 141.188 27.489,141.000 27.603,141.000 27.685 C 141.000 27.766,140.899 27.833,140.776 27.833 C 140.489 27.833,139.537 28.306,139.410 28.511 C 139.357 28.596,139.168 28.667,138.990 28.667 C 138.812 28.667,138.667 28.742,138.667 28.833 C 138.667 28.925,138.479 29.000,138.250 29.000 C 138.021 29.000,137.833 29.074,137.833 29.163 C 137.833 29.253,137.646 29.374,137.417 29.432 C 137.188 29.489,137.000 29.603,137.000 29.685 C 137.000 29.766,136.813 29.833,136.583 29.833 C 136.354 29.833,136.167 29.908,136.167 30.000 C 136.167 30.092,136.025 30.167,135.851 30.167 C 135.678 30.167,135.492 30.279,135.440 30.417 C 135.387 30.554,135.191 30.667,135.005 30.667 C 134.819 30.667,134.667 30.742,134.667 30.833 C 134.667 30.925,134.479 31.000,134.250 31.000 C 134.021 31.000,133.833 31.074,133.833 31.163 C 133.833 31.253,133.646 31.374,133.417 31.432 C 133.188 31.489,133.000 31.603,133.000 31.685 C 133.000 31.766,132.813 31.833,132.583 31.833 C 132.354 31.833,132.167 31.908,132.167 32.000 C 132.167 32.092,131.985 32.167,131.762 32.167 C 131.539 32.167,131.245 32.279,131.107 32.417 C 130.970 32.554,130.702 32.667,130.512 32.667 C 130.322 32.667,130.167 32.742,130.167 32.833 C 130.167 32.925,130.057 33.000,129.922 33.000 C 129.664 33.000,128.475 33.513,128.333 33.685 C 128.287 33.741,127.969 33.887,127.625 34.010 C 127.281 34.133,127.000 34.294,127.000 34.367 C 127.000 34.440,126.925 34.500,126.833 34.500 C 126.724 34.500,126.667 31.554,126.667 25.995 C 126.667 18.588,126.634 17.477,126.417 17.394 C 126.279 17.341,126.167 17.214,126.167 17.112 C 126.167 16.780,125.292 16.167,124.817 16.167 C 124.562 16.167,124.307 16.092,124.250 16.000 C 124.193 15.908,123.701 15.833,123.157 15.833 C 122.608 15.833,122.167 15.908,122.167 16.000 M348.667 16.000 C 348.667 16.092,348.410 16.167,348.097 16.167 C 347.401 16.167,346.970 16.317,347.094 16.517 C 347.145 16.600,347.100 16.667,346.995 16.667 C 346.697 16.667,346.178 17.376,346.172 17.792 C 346.169 17.998,346.092 18.167,346.000 18.167 C 345.895 18.167,345.833 19.361,345.833 21.417 L 345.833 24.667 344.321 24.667 C 342.582 24.667,341.833 25.109,341.833 26.136 C 341.833 26.411,341.728 26.672,341.595 26.722 C 341.306 26.833,341.351 28.534,341.646 28.632 C 341.749 28.666,341.833 28.919,341.833 29.192 C 341.833 29.644,342.146 30.167,342.417 30.167 C 342.476 30.167,342.628 30.260,342.756 30.375 C 342.884 30.490,343.100 30.677,343.237 30.792 C 343.385 30.915,343.964 31.000,344.660 31.000 L 345.833 31.000 345.833 41.583 C 345.833 48.528,345.891 52.167,346.000 52.167 C 346.092 52.167,346.167 52.394,346.167 52.672 C 346.167 52.967,346.271 53.217,346.417 53.273 C 346.554 53.326,346.667 53.446,346.667 53.541 C 346.667 53.778,347.190 54.155,347.528 54.161 C 347.681 54.164,347.837 54.260,347.875 54.375 C 347.924 54.522,348.404 54.583,349.500 54.583 C 350.596 54.583,351.076 54.522,351.125 54.375 C 351.163 54.260,351.306 54.167,351.442 54.167 C 351.730 54.167,352.167 53.772,352.167 53.512 C 352.167 53.414,352.236 53.333,352.321 53.333 C 352.960 53.333,353.000 52.647,353.000 41.641 L 353.000 31.000 358.167 31.000 C 361.500 31.000,363.333 30.941,363.333 30.833 C 363.333 30.742,363.439 30.667,363.569 30.667 C 363.883 30.667,365.000 29.571,365.000 29.263 C 365.000 29.129,365.075 28.973,365.167 28.917 C 365.258 28.860,365.333 28.331,365.333 27.740 C 365.333 27.136,365.261 26.667,365.167 26.667 C 365.075 26.667,365.000 26.479,365.000 26.250 C 365.000 26.021,364.930 25.833,364.845 25.833 C 364.759 25.833,364.643 25.687,364.586 25.508 C 364.342 24.738,363.800 24.667,358.224 24.667 L 353.000 24.667 353.000 21.250 C 353.000 19.083,352.939 17.833,352.833 17.833 C 352.742 17.833,352.667 17.713,352.667 17.567 C 352.667 17.138,351.586 16.167,351.110 16.167 C 350.877 16.167,350.640 16.092,350.583 16.000 C 350.527 15.908,350.072 15.833,349.573 15.833 C 349.075 15.833,348.667 15.908,348.667 16.000 M167.083 24.833 C 167.027 24.925,166.647 25.000,166.240 25.000 C 165.833 25.000,165.500 25.075,165.500 25.167 C 165.500 25.258,165.305 25.333,165.067 25.333 C 164.676 25.333,163.905 25.604,163.127 26.014 C 162.968 26.098,162.722 26.167,162.580 26.167 C 162.439 26.167,162.280 26.279,162.227 26.417 C 162.174 26.554,161.989 26.667,161.816 26.667 C 161.642 26.667,161.500 26.742,161.500 26.833 C 161.500 26.925,161.400 27.000,161.278 27.000 C 161.156 27.000,160.956 27.188,160.833 27.417 C 160.711 27.646,160.543 27.833,160.460 27.833 C 160.284 27.833,159.833 28.257,159.833 28.422 C 159.833 28.485,159.646 28.683,159.417 28.863 C 159.188 29.043,159.000 29.335,159.000 29.512 C 159.000 29.689,158.925 29.833,158.833 29.833 C 158.742 29.833,158.667 30.088,158.667 30.399 C 158.667 30.748,158.571 31.001,158.417 31.060 C 158.228 31.133,158.167 31.439,158.167 32.318 C 158.167 32.957,158.092 33.527,158.000 33.583 C 157.894 33.649,157.833 35.807,157.833 39.510 C 157.833 43.281,157.892 45.333,158.000 45.333 C 158.095 45.333,158.167 45.835,158.167 46.505 C 158.167 47.393,158.227 47.700,158.417 47.773 C 158.571 47.832,158.667 48.086,158.667 48.438 C 158.667 49.252,160.100 51.333,160.661 51.333 C 160.775 51.333,161.016 51.521,161.196 51.750 C 161.377 51.979,161.661 52.167,161.828 52.167 C 161.994 52.167,162.174 52.279,162.227 52.417 C 162.280 52.554,162.475 52.667,162.661 52.667 C 162.848 52.667,163.000 52.742,163.000 52.833 C 163.000 52.925,163.188 53.000,163.417 53.000 C 163.646 53.000,163.833 53.075,163.833 53.167 C 163.833 53.258,164.064 53.333,164.345 53.333 C 164.627 53.333,164.970 53.446,165.107 53.583 C 165.262 53.738,165.671 53.833,166.179 53.833 C 166.630 53.833,167.000 53.908,167.000 54.000 C 167.000 54.104,167.941 54.167,169.490 54.167 C 170.970 54.167,172.022 54.234,172.083 54.333 C 172.148 54.439,174.054 54.500,177.250 54.500 C 180.446 54.500,182.352 54.439,182.417 54.333 C 182.478 54.235,183.502 54.167,184.927 54.167 C 186.420 54.167,187.333 54.103,187.333 54.000 C 187.333 53.908,187.748 53.833,188.255 53.833 C 188.921 53.833,189.204 53.764,189.273 53.583 C 189.332 53.429,189.586 53.333,189.934 53.333 C 190.246 53.333,190.500 53.258,190.500 53.167 C 190.500 53.075,190.688 53.000,190.917 53.000 C 191.146 53.000,191.333 52.925,191.333 52.833 C 191.333 52.742,191.486 52.667,191.672 52.667 C 191.858 52.667,192.054 52.554,192.106 52.417 C 192.159 52.279,192.307 52.167,192.434 52.167 C 192.562 52.167,192.667 52.092,192.667 52.000 C 192.667 51.908,192.723 51.842,192.792 51.853 C 193.135 51.907,193.333 51.809,193.333 51.583 C 193.333 51.446,193.408 51.333,193.500 51.333 C 193.749 51.333,195.000 49.996,195.000 49.730 C 195.000 49.603,195.075 49.500,195.167 49.500 C 195.258 49.500,195.333 49.396,195.333 49.268 C 195.333 49.140,195.446 48.992,195.583 48.940 C 195.721 48.887,195.833 48.696,195.833 48.515 C 195.833 48.334,195.908 48.140,196.000 48.083 C 196.092 48.027,196.167 47.604,196.167 47.145 C 196.167 46.627,196.261 46.215,196.415 46.061 C 196.753 45.723,196.714 32.821,196.375 32.708 C 196.246 32.665,196.167 32.327,196.167 31.819 C 196.167 31.369,196.092 31.000,196.000 31.000 C 195.908 31.000,195.833 30.818,195.833 30.595 C 195.833 30.373,195.721 30.078,195.583 29.940 C 195.446 29.803,195.333 29.610,195.333 29.512 C 195.333 29.414,195.258 29.333,195.167 29.333 C 195.075 29.333,195.000 29.216,195.000 29.072 C 195.000 28.733,193.267 27.000,192.928 27.000 C 192.784 27.000,192.667 26.925,192.667 26.833 C 192.667 26.742,192.554 26.667,192.417 26.667 C 192.279 26.667,192.167 26.554,192.167 26.417 C 192.167 26.261,192.009 26.167,191.750 26.167 C 191.521 26.167,191.333 26.092,191.333 26.000 C 191.333 25.908,191.146 25.833,190.917 25.833 C 190.688 25.833,190.500 25.762,190.500 25.674 C 190.500 25.587,190.237 25.466,189.915 25.405 C 189.593 25.345,189.289 25.229,189.238 25.148 C 189.188 25.066,188.743 25.000,188.250 25.000 C 187.757 25.000,187.307 24.925,187.250 24.833 C 187.183 24.725,183.640 24.667,177.167 24.667 C 170.693 24.667,167.150 24.725,167.083 24.833 M213.500 24.833 C 213.500 24.926,213.060 25.000,212.514 25.000 C 211.972 25.000,211.503 25.074,211.472 25.165 C 211.442 25.256,211.206 25.348,210.948 25.369 C 210.690 25.390,210.400 25.504,210.302 25.621 C 210.205 25.738,209.959 25.833,209.755 25.833 C 209.301 25.833,208.536 26.203,208.046 26.659 C 207.845 26.847,207.613 27.000,207.531 27.000 C 207.449 27.000,207.180 27.188,206.932 27.417 C 206.685 27.646,206.439 27.833,206.385 27.833 C 206.229 27.833,205.844 28.396,205.839 28.633 C 205.836 28.752,205.646 29.023,205.417 29.235 C 205.143 29.489,205.000 29.801,205.000 30.144 C 205.000 30.432,204.925 30.667,204.833 30.667 C 204.741 30.667,204.667 31.106,204.667 31.653 C 204.667 32.195,204.589 32.665,204.495 32.696 C 204.262 32.774,204.270 51.227,204.502 51.306 C 204.593 51.336,204.667 51.730,204.667 52.181 C 204.667 52.631,204.742 53.000,204.833 53.000 C 204.925 53.000,205.000 53.133,205.000 53.296 C 205.000 53.667,205.567 54.167,205.988 54.167 C 206.163 54.167,206.334 54.253,206.369 54.358 C 206.480 54.689,208.884 54.749,209.512 54.436 C 209.808 54.288,210.121 54.167,210.207 54.167 C 210.416 54.167,210.987 53.471,210.994 53.208 C 210.998 53.094,211.075 53.000,211.167 53.000 C 211.276 53.000,211.333 49.556,211.333 43.000 C 211.333 36.926,211.394 33.000,211.489 33.000 C 211.574 33.000,211.697 32.835,211.761 32.633 C 211.893 32.217,212.232 31.833,212.468 31.833 C 212.555 31.833,212.719 31.721,212.833 31.583 C 212.960 31.431,213.325 31.333,213.770 31.333 C 214.172 31.333,214.500 31.258,214.500 31.167 C 214.500 31.058,217.636 31.000,223.573 31.000 C 229.443 31.000,232.683 31.059,232.750 31.167 C 232.807 31.258,233.261 31.333,233.760 31.333 C 234.280 31.333,234.667 31.408,234.667 31.508 C 234.667 31.603,234.854 31.869,235.083 32.098 C 235.313 32.328,235.500 32.624,235.500 32.758 C 235.500 32.891,235.575 33.000,235.667 33.000 C 235.776 33.000,235.833 36.444,235.833 43.000 C 235.833 48.675,235.897 53.000,235.981 53.000 C 236.062 53.000,236.168 53.156,236.218 53.346 C 236.268 53.536,236.464 53.732,236.654 53.782 C 236.844 53.832,237.000 53.938,237.000 54.019 C 237.000 54.100,237.115 54.167,237.256 54.167 C 237.397 54.167,237.678 54.272,237.881 54.402 C 238.383 54.721,240.588 54.721,240.908 54.401 C 241.037 54.272,241.266 54.167,241.417 54.167 C 241.686 54.167,242.167 53.793,242.167 53.583 C 242.167 53.524,242.279 53.364,242.417 53.226 C 242.554 53.089,242.667 52.794,242.667 52.571 C 242.667 52.349,242.742 52.167,242.833 52.167 C 242.943 52.167,243.000 48.667,243.000 42.000 C 243.000 35.333,242.943 31.833,242.833 31.833 C 242.742 31.833,242.667 31.493,242.667 31.078 C 242.667 30.561,242.588 30.293,242.417 30.227 C 242.279 30.174,242.167 29.993,242.167 29.825 C 242.167 29.657,242.092 29.473,242.000 29.417 C 241.908 29.360,241.833 29.168,241.833 28.990 C 241.833 28.812,241.721 28.667,241.583 28.667 C 241.446 28.667,241.333 28.595,241.333 28.508 C 241.333 28.209,239.651 26.667,239.325 26.667 C 239.146 26.667,239.000 26.554,239.000 26.417 C 239.000 26.261,238.843 26.167,238.583 26.167 C 238.354 26.167,238.167 26.092,238.167 26.000 C 238.167 25.908,237.979 25.833,237.750 25.833 C 237.521 25.833,237.333 25.774,237.333 25.701 C 237.333 25.496,235.565 25.000,234.837 25.000 C 234.479 25.000,234.140 24.925,234.083 24.833 C 234.016 24.725,230.387 24.667,223.740 24.667 C 217.024 24.667,213.500 24.724,213.500 24.833 M259.917 24.833 C 259.860 24.925,259.410 25.000,258.917 25.000 C 258.423 25.000,257.979 25.066,257.928 25.148 C 257.878 25.229,257.574 25.345,257.252 25.405 C 256.930 25.466,256.667 25.587,256.667 25.674 C 256.667 25.762,256.479 25.833,256.250 25.833 C 256.021 25.833,255.833 25.908,255.833 26.000 C 255.833 26.092,255.646 26.167,255.417 26.167 C 255.157 26.167,255.000 26.261,255.000 26.417 C 255.000 26.557,254.851 26.667,254.659 26.667 C 254.472 26.667,254.131 26.854,253.902 27.083 C 253.672 27.313,253.404 27.500,253.306 27.500 C 253.079 27.500,252.173 28.519,252.169 28.778 C 252.168 28.885,252.088 28.998,251.993 29.030 C 251.897 29.062,251.806 29.251,251.791 29.449 C 251.776 29.648,251.713 29.778,251.650 29.739 C 251.495 29.644,251.308 30.157,251.427 30.350 C 251.479 30.434,251.404 30.547,251.261 30.602 C 250.873 30.751,250.862 52.678,251.250 53.000 C 251.387 53.114,251.500 53.306,251.500 53.426 C 251.500 53.546,251.650 53.692,251.833 53.750 C 252.017 53.808,252.167 53.926,252.167 54.011 C 252.167 54.097,252.322 54.167,252.512 54.167 C 252.702 54.167,252.962 54.272,253.090 54.400 C 253.249 54.559,253.726 54.633,254.583 54.633 C 255.441 54.633,255.917 54.559,256.076 54.400 C 256.205 54.272,256.433 54.167,256.583 54.167 C 256.893 54.167,257.333 53.782,257.333 53.512 C 257.333 53.414,257.446 53.333,257.583 53.333 C 257.739 53.333,257.833 53.176,257.833 52.917 C 257.833 52.688,257.908 52.500,258.000 52.500 C 258.109 52.500,258.167 49.000,258.167 42.333 C 258.167 35.215,258.220 32.167,258.345 32.167 C 258.443 32.167,258.628 32.073,258.756 31.958 C 258.884 31.844,259.100 31.656,259.237 31.542 C 259.374 31.427,259.860 31.333,260.316 31.333 C 260.773 31.333,261.193 31.258,261.250 31.167 C 261.317 31.059,264.557 31.000,270.427 31.000 C 276.364 31.000,279.500 31.058,279.500 31.167 C 279.500 31.258,279.828 31.333,280.230 31.333 C 280.675 31.333,281.040 31.431,281.167 31.583 C 281.281 31.721,281.445 31.833,281.532 31.833 C 281.809 31.833,282.167 32.297,282.167 32.655 C 282.167 32.851,282.275 33.000,282.417 33.000 C 282.636 33.000,282.667 34.222,282.667 43.000 C 282.667 49.556,282.724 53.000,282.833 53.000 C 282.925 53.000,283.000 53.133,283.000 53.296 C 283.000 53.634,283.554 54.167,283.905 54.167 C 284.033 54.167,284.169 54.256,284.205 54.364 C 284.301 54.653,287.062 54.673,287.611 54.388 C 287.846 54.266,288.117 54.167,288.213 54.167 C 288.549 54.167,289.333 53.108,289.333 52.654 C 289.333 52.403,289.446 52.159,289.587 52.105 C 289.932 51.973,289.887 31.990,289.542 31.875 C 289.413 31.832,289.333 31.494,289.333 30.986 C 289.333 30.535,289.258 30.167,289.167 30.167 C 289.075 30.167,289.000 30.017,289.000 29.833 C 289.000 29.650,288.933 29.500,288.851 29.500 C 288.770 29.500,288.656 29.313,288.598 29.083 C 288.541 28.854,288.420 28.667,288.330 28.667 C 288.240 28.667,288.167 28.586,288.167 28.488 C 288.167 28.271,287.748 27.833,287.540 27.833 C 287.457 27.833,287.289 27.646,287.167 27.417 C 287.027 27.155,286.799 27.000,286.555 27.000 C 286.341 27.000,286.167 26.925,286.167 26.833 C 286.167 26.742,286.054 26.667,285.917 26.667 C 285.779 26.667,285.666 26.610,285.666 26.542 C 285.664 26.333,284.666 25.833,284.250 25.833 C 284.036 25.833,283.832 25.745,283.796 25.637 C 283.760 25.529,283.474 25.422,283.161 25.401 C 282.849 25.379,282.566 25.280,282.532 25.181 C 282.498 25.078,282.046 25.000,281.486 25.000 C 280.940 25.000,280.500 24.926,280.500 24.833 C 280.500 24.724,276.976 24.667,270.260 24.667 C 263.613 24.667,259.984 24.725,259.917 24.833 M307.083 24.833 C 307.027 24.925,306.577 25.000,306.083 25.000 C 305.590 25.000,305.145 25.066,305.095 25.148 C 305.045 25.229,304.740 25.345,304.419 25.405 C 304.097 25.466,303.833 25.587,303.833 25.674 C 303.833 25.762,303.646 25.833,303.417 25.833 C 303.188 25.833,303.000 25.908,303.000 26.000 C 303.000 26.092,302.830 26.167,302.623 26.167 C 302.416 26.167,302.056 26.335,301.823 26.542 C 301.365 26.947,300.897 27.268,300.500 27.450 C 300.075 27.645,299.833 27.961,299.833 28.321 C 299.833 28.511,299.748 28.667,299.644 28.667 C 299.376 28.667,298.667 29.530,298.667 29.857 C 298.667 30.008,298.554 30.174,298.417 30.227 C 298.272 30.282,298.167 30.532,298.167 30.818 C 298.167 31.091,298.092 31.360,298.000 31.417 C 297.908 31.473,297.833 32.036,297.833 32.667 C 297.833 33.298,297.758 33.860,297.667 33.917 C 297.561 33.982,297.500 36.030,297.500 39.510 C 297.500 43.059,297.559 45.000,297.667 45.000 C 297.762 45.000,297.833 45.500,297.833 46.167 C 297.833 46.833,297.905 47.333,298.000 47.333 C 298.092 47.333,298.167 47.596,298.167 47.917 C 298.167 48.324,298.242 48.500,298.417 48.500 C 298.572 48.500,298.667 48.657,298.667 48.917 C 298.667 49.146,298.742 49.333,298.833 49.333 C 298.925 49.333,299.000 49.433,299.000 49.555 C 299.000 49.677,299.188 49.877,299.417 50.000 C 299.646 50.123,299.833 50.291,299.833 50.373 C 299.833 50.546,300.256 51.000,300.417 51.000 C 300.562 51.000,301.000 51.447,301.000 51.595 C 301.000 51.786,301.559 52.156,301.857 52.161 C 302.008 52.164,302.174 52.279,302.227 52.417 C 302.280 52.554,302.475 52.667,302.661 52.667 C 302.848 52.667,303.000 52.742,303.000 52.833 C 303.000 52.925,303.188 53.000,303.417 53.000 C 303.646 53.000,303.833 53.075,303.833 53.167 C 303.833 53.258,304.167 53.333,304.575 53.333 C 305.033 53.333,305.368 53.422,305.450 53.565 C 305.632 53.881,306.763 54.017,309.958 54.106 C 311.511 54.150,312.667 54.250,312.667 54.341 C 312.667 54.557,316.617 54.549,316.750 54.333 C 316.807 54.242,317.171 54.167,317.560 54.167 C 318.467 54.167,319.150 53.851,319.273 53.375 C 319.326 53.169,319.474 53.000,319.601 53.000 C 319.755 53.000,319.833 52.804,319.833 52.417 C 319.833 52.096,319.908 51.833,320.000 51.833 C 320.209 51.833,320.221 50.457,320.014 50.242 C 319.931 50.155,319.837 49.900,319.806 49.675 C 319.775 49.450,319.528 49.038,319.257 48.758 L 318.764 48.250 314.340 48.200 C 311.835 48.172,309.849 48.082,309.759 47.992 C 309.671 47.905,309.023 47.833,308.318 47.833 C 307.332 47.833,307.013 47.776,306.940 47.583 C 306.887 47.446,306.691 47.333,306.505 47.333 C 306.319 47.333,306.167 47.258,306.167 47.167 C 306.167 47.075,305.979 47.000,305.750 47.000 C 305.449 47.000,305.333 46.910,305.333 46.677 C 305.333 46.499,305.258 46.307,305.167 46.250 C 305.075 46.193,305.000 46.001,305.000 45.823 C 305.000 45.646,304.925 45.500,304.833 45.500 C 304.737 45.500,304.667 44.972,304.667 44.250 L 304.667 43.000 319.583 43.000 C 328.208 43.000,334.500 42.937,334.500 42.851 C 334.500 42.770,334.688 42.656,334.917 42.598 C 335.146 42.541,335.333 42.420,335.333 42.330 C 335.333 42.240,335.414 42.167,335.512 42.167 C 335.833 42.167,336.167 41.700,336.167 41.252 C 336.167 41.011,336.233 40.855,336.314 40.905 C 336.759 41.180,336.860 31.868,336.417 31.500 C 336.264 31.373,336.167 31.008,336.167 30.563 C 336.167 30.162,336.092 29.833,336.000 29.833 C 335.908 29.833,335.833 29.646,335.833 29.417 C 335.833 29.157,335.739 29.000,335.583 29.000 C 335.446 29.000,335.333 28.862,335.333 28.694 C 335.333 28.352,334.157 27.000,333.859 27.000 C 333.753 27.000,333.667 26.925,333.667 26.833 C 333.667 26.742,333.517 26.667,333.333 26.667 C 333.148 26.667,333.000 26.556,333.000 26.417 C 333.000 26.279,332.887 26.167,332.750 26.167 C 332.612 26.167,332.500 26.092,332.500 26.000 C 332.500 25.908,332.246 25.833,331.934 25.833 C 331.586 25.833,331.332 25.738,331.273 25.583 C 331.220 25.446,331.029 25.333,330.848 25.333 C 330.668 25.333,330.473 25.258,330.417 25.167 C 330.360 25.075,329.910 25.000,329.417 25.000 C 328.923 25.000,328.473 24.925,328.417 24.833 C 328.350 24.725,324.613 24.667,317.750 24.667 C 310.887 24.667,307.150 24.725,307.083 24.833 M66.667 31.167 C 66.667 31.259,67.111 31.333,67.667 31.333 C 68.444 31.333,68.667 31.389,68.667 31.583 C 68.667 31.721,68.806 31.833,68.977 31.833 C 69.379 31.833,70.167 32.621,70.167 33.023 C 70.167 33.194,70.279 33.333,70.417 33.333 C 70.634 33.333,70.667 34.139,70.667 39.583 C 70.667 45.028,70.634 45.833,70.417 45.833 C 70.279 45.833,70.167 45.890,70.166 45.958 C 70.166 46.171,69.388 47.000,69.189 47.000 C 69.085 47.000,69.000 47.075,69.000 47.167 C 69.000 47.258,68.848 47.333,68.661 47.333 C 68.475 47.333,68.280 47.446,68.227 47.583 C 68.155 47.772,67.850 47.833,66.982 47.833 C 66.327 47.833,65.833 47.905,65.833 48.000 C 65.833 48.109,63.306 48.167,58.583 48.167 C 54.593 48.167,51.333 48.102,51.333 48.022 C 51.333 47.942,50.640 47.863,49.793 47.846 C 48.648 47.823,48.218 47.753,48.118 47.574 C 48.044 47.442,47.837 47.333,47.658 47.333 C 47.480 47.333,47.333 47.258,47.333 47.167 C 47.333 47.075,47.183 47.000,47.000 47.000 C 46.817 47.000,46.667 46.925,46.667 46.833 C 46.667 46.742,46.554 46.667,46.417 46.667 C 46.279 46.667,46.167 46.554,46.167 46.417 C 46.167 46.279,46.092 46.167,46.000 46.167 C 45.908 46.167,45.833 46.014,45.833 45.828 C 45.833 45.642,45.721 45.446,45.583 45.394 C 45.366 45.310,45.333 44.350,45.333 38.149 L 45.333 31.000 56.000 31.000 C 63.000 31.000,66.667 31.057,66.667 31.167 M185.833 31.167 C 185.833 31.258,186.176 31.333,186.595 31.333 C 187.014 31.333,187.462 31.427,187.589 31.542 C 188.104 32.004,188.325 32.167,188.433 32.167 C 188.495 32.167,188.646 32.298,188.768 32.458 C 189.046 32.824,189.109 46.167,188.833 46.167 C 188.742 46.167,188.667 46.279,188.667 46.417 C 188.667 46.554,188.571 46.667,188.453 46.667 C 188.336 46.667,188.132 46.817,188.000 47.000 C 187.868 47.183,187.594 47.333,187.392 47.333 C 187.189 47.333,186.911 47.446,186.774 47.583 C 186.603 47.754,186.181 47.833,185.438 47.833 C 184.841 47.833,184.307 47.908,184.250 48.000 C 184.184 48.107,181.637 48.167,177.157 48.167 C 172.608 48.167,170.167 48.108,170.167 48.000 C 170.167 47.906,169.699 47.833,169.097 47.833 C 168.499 47.833,167.819 47.728,167.555 47.595 C 167.296 47.463,166.821 47.240,166.500 47.098 C 166.179 46.957,165.984 46.839,166.066 46.837 C 166.148 46.835,166.017 46.649,165.774 46.425 C 165.532 46.200,165.333 45.867,165.333 45.684 C 165.333 45.502,165.258 45.307,165.167 45.250 C 165.061 45.185,165.000 43.085,165.000 39.500 C 165.000 35.915,165.061 33.815,165.167 33.750 C 165.258 33.693,165.333 33.453,165.333 33.217 C 165.333 32.757,166.155 31.833,166.564 31.833 C 166.693 31.833,166.841 31.721,166.894 31.583 C 166.963 31.403,167.246 31.333,167.911 31.333 C 168.418 31.333,168.833 31.258,168.833 31.167 C 168.833 31.058,171.778 31.000,177.333 31.000 C 182.889 31.000,185.833 31.058,185.833 31.167 M327.083 31.167 C 327.140 31.258,327.519 31.333,327.927 31.333 C 328.367 31.333,328.667 31.410,328.667 31.522 C 328.667 31.626,328.811 31.836,328.987 31.989 C 329.269 32.233,329.313 32.533,329.349 34.425 L 329.389 36.583 317.017 36.626 L 304.644 36.669 304.716 35.126 C 304.821 32.890,305.274 31.834,306.130 31.834 C 306.248 31.833,306.387 31.721,306.440 31.583 C 306.508 31.404,306.788 31.333,307.425 31.333 C 307.914 31.333,308.360 31.258,308.417 31.167 C 308.483 31.059,311.776 31.000,317.750 31.000 C 323.724 31.000,327.017 31.059,327.083 31.167 M88.263 35.145 C 88.214 35.225,87.943 35.336,87.660 35.393 C 87.034 35.518,86.667 35.861,86.667 36.321 C 86.667 36.517,86.558 36.667,86.417 36.667 C 86.214 36.667,86.167 36.937,86.167 38.102 L 86.167 39.537 86.909 40.268 L 87.651 41.000 98.666 41.000 C 110.008 41.000,109.781 41.012,110.383 40.369 C 110.924 39.791,111.000 39.666,111.000 39.355 C 111.000 39.171,111.075 38.973,111.167 38.917 C 111.258 38.860,111.333 38.518,111.333 38.157 C 111.333 37.796,111.258 37.500,111.167 37.500 C 111.075 37.500,111.000 37.200,111.000 36.833 C 111.000 36.467,110.933 36.167,110.851 36.167 C 110.769 36.167,110.525 35.980,110.309 35.753 C 110.093 35.525,109.790 35.338,109.635 35.336 C 109.480 35.335,109.307 35.258,109.250 35.167 C 109.120 34.957,88.393 34.936,88.263 35.145 M60.208 54.291 C 59.085 54.320,57.248 54.320,56.125 54.291 C 55.002 54.262,55.921 54.239,58.167 54.239 C 60.413 54.239,61.331 54.262,60.208 54.291 M179.718 54.291 C 178.509 54.320,176.484 54.320,175.218 54.291 C 173.952 54.263,174.942 54.240,177.417 54.240 C 179.892 54.240,180.927 54.263,179.718 54.291 M315.547 54.288 C 315.160 54.323,314.485 54.324,314.047 54.289 C 313.609 54.255,313.925 54.226,314.750 54.226 C 315.575 54.225,315.934 54.254,315.547 54.288 M229.444 69.111 C 229.383 69.172,229.333 69.397,229.333 69.611 C 229.333 69.825,229.258 70.000,229.167 70.000 C 229.075 70.000,229.009 70.056,229.020 70.125 C 229.193 71.222,228.974 72.167,228.547 72.167 C 227.958 72.167,227.331 72.870,227.464 73.381 C 227.587 73.853,227.901 74.167,228.250 74.167 C 228.955 74.167,229.014 74.481,229.014 78.262 C 229.014 81.082,229.065 81.944,229.249 82.225 C 229.378 82.422,229.469 82.658,229.450 82.750 C 229.431 82.845,229.933 82.938,230.625 82.966 C 231.624 83.006,231.833 82.970,231.833 82.757 C 231.833 82.616,231.908 82.500,232.000 82.500 C 232.106 82.500,232.167 81.083,232.167 78.583 L 232.167 74.667 233.571 74.667 C 234.598 74.667,235.044 74.599,235.226 74.417 C 235.364 74.279,235.613 74.166,235.780 74.165 C 235.947 74.165,236.170 73.977,236.276 73.748 C 236.382 73.520,236.401 73.375,236.318 73.426 C 236.235 73.478,236.167 73.215,236.167 72.843 L 236.167 72.167 234.167 72.167 L 232.167 72.167 232.167 70.919 C 232.167 69.250,231.959 69.000,230.574 69.000 C 230.014 69.000,229.506 69.050,229.444 69.111 M266.458 69.316 C 266.232 69.545,266.167 69.896,266.167 70.889 L 266.167 72.167 261.625 72.179 C 256.811 72.193,256.456 72.214,256.364 72.491 C 256.332 72.588,256.124 72.667,255.903 72.667 C 255.681 72.667,255.500 72.742,255.500 72.833 C 255.500 72.925,255.387 73.000,255.250 73.000 C 255.112 73.000,255.000 73.112,255.000 73.250 C 255.000 73.387,254.925 73.500,254.833 73.500 C 254.742 73.500,254.667 73.641,254.667 73.813 C 254.667 73.985,254.554 74.219,254.417 74.333 C 254.211 74.504,254.167 75.094,254.167 77.692 C 254.167 80.340,254.207 80.859,254.417 80.940 C 254.554 80.992,254.667 81.183,254.667 81.363 C 254.667 81.784,255.051 82.167,255.474 82.167 C 255.656 82.167,255.833 82.250,255.867 82.351 C 256.063 82.939,265.736 83.396,266.083 82.833 C 266.140 82.742,266.334 82.667,266.515 82.667 C 266.696 82.667,266.887 82.554,266.940 82.417 C 266.992 82.279,267.183 82.167,267.363 82.167 C 267.683 82.167,268.167 81.808,268.167 81.572 C 268.167 81.507,268.284 81.368,268.427 81.263 C 268.685 81.074,268.821 69.551,268.570 69.144 C 268.399 68.868,266.769 69.000,266.458 69.316 M279.833 69.417 C 279.833 69.646,279.758 69.833,279.667 69.833 C 279.571 69.833,279.500 70.333,279.500 71.000 L 279.500 72.167 278.954 72.167 C 278.027 72.167,277.516 73.151,278.065 73.875 C 278.187 74.035,278.447 74.167,278.643 74.167 C 278.840 74.167,279.000 74.242,279.000 74.333 C 279.000 74.425,279.112 74.500,279.250 74.500 C 279.465 74.500,279.500 75.037,279.500 78.333 C 279.500 80.778,279.560 82.167,279.667 82.167 C 279.758 82.167,279.833 82.354,279.833 82.583 C 279.833 82.988,279.867 83.000,281.000 83.000 C 281.926 83.000,282.167 82.948,282.167 82.750 C 282.167 82.612,282.242 82.500,282.333 82.500 C 282.440 82.500,282.500 81.083,282.500 78.583 L 282.500 74.667 283.980 74.667 C 285.091 74.667,285.511 74.605,285.667 74.417 C 285.781 74.279,286.052 74.167,286.270 74.167 C 286.618 74.167,286.666 74.089,286.664 73.542 C 286.659 72.140,286.702 72.167,284.481 72.167 L 282.500 72.167 282.500 70.833 C 282.500 70.056,282.431 69.500,282.333 69.500 C 282.242 69.500,282.167 69.387,282.167 69.250 C 282.167 69.052,281.926 69.000,281.000 69.000 C 279.867 69.000,279.833 69.012,279.833 69.417 M288.425 69.180 C 288.469 69.252,288.429 69.357,288.336 69.415 C 288.226 69.483,288.167 71.841,288.167 76.159 C 288.167 83.627,288.042 83.000,289.525 83.000 C 291.073 83.000,291.000 83.214,291.000 78.661 L 291.000 74.667 294.208 74.646 C 298.255 74.619,298.878 74.644,299.074 74.841 C 299.162 74.928,299.368 75.000,299.533 75.000 C 299.879 75.000,299.862 74.784,299.834 78.792 C 299.821 80.607,299.875 81.667,299.980 81.667 C 300.072 81.667,300.170 81.948,300.198 82.292 L 300.250 82.917 301.262 82.966 C 302.663 83.033,302.667 83.019,302.666 78.534 C 302.665 75.507,302.620 74.835,302.393 74.417 C 302.243 74.142,302.013 73.710,301.882 73.458 C 301.747 73.200,301.502 73.000,301.321 73.000 C 301.145 73.000,301.000 72.925,301.000 72.833 C 301.000 72.742,300.821 72.667,300.601 72.667 C 300.382 72.667,300.159 72.553,300.106 72.415 C 300.053 72.277,299.951 72.173,299.880 72.185 C 299.808 72.197,297.781 72.197,295.375 72.186 L 291.000 72.167 291.000 70.906 C 291.000 69.096,290.904 68.975,289.495 69.017 C 288.862 69.035,288.381 69.109,288.425 69.180 M304.860 70.258 C 304.265 71.563,304.742 72.167,306.368 72.167 C 308.023 72.167,308.758 71.209,307.935 70.125 C 307.537 69.601,305.112 69.705,304.860 70.258 M268.906 75.000 C 268.906 77.337,268.929 78.294,268.958 77.125 C 268.987 75.956,268.987 74.044,268.958 72.875 C 268.929 71.706,268.906 72.662,268.906 75.000 M131.243 72.409 C 131.064 72.545,130.767 72.659,130.583 72.663 C 130.249 72.670,129.622 73.339,129.216 74.121 C 129.061 74.421,129.002 75.414,129.006 77.644 L 129.011 80.750 129.471 81.416 C 129.724 81.782,130.073 82.109,130.246 82.142 C 130.418 82.175,130.664 82.307,130.792 82.435 C 130.919 82.562,131.206 82.667,131.429 82.667 C 131.651 82.667,131.833 82.742,131.833 82.833 C 131.833 82.941,133.611 83.000,136.833 83.000 L 141.833 83.000 141.833 82.097 C 141.833 80.554,142.183 80.667,137.396 80.667 L 133.160 80.667 132.497 80.248 L 131.833 79.829 131.833 77.486 C 131.833 74.376,131.389 74.646,136.482 74.661 C 139.986 74.671,140.676 74.633,140.890 74.420 C 141.029 74.281,141.302 74.167,141.496 74.167 C 141.822 74.167,141.846 74.090,141.800 73.208 L 141.750 72.250 136.660 72.206 C 132.372 72.169,131.519 72.201,131.243 72.409 M146.907 72.411 C 146.729 72.546,146.410 72.658,146.198 72.661 C 145.985 72.664,145.860 72.741,145.917 72.833 C 145.973 72.925,145.940 73.000,145.843 73.000 C 145.580 73.000,145.000 73.630,145.000 73.917 C 145.000 74.054,144.925 74.167,144.833 74.167 C 144.728 74.167,144.667 75.417,144.667 77.583 C 144.667 79.462,144.729 81.000,144.805 81.000 C 144.881 81.000,145.044 81.188,145.167 81.417 C 145.289 81.646,145.455 81.833,145.536 81.833 C 145.616 81.833,145.869 82.021,146.098 82.250 C 146.328 82.479,146.695 82.667,146.914 82.667 C 147.134 82.667,147.360 82.742,147.417 82.833 C 147.481 82.938,149.141 83.000,151.843 83.000 C 154.614 83.000,156.167 82.940,156.167 82.833 C 156.167 82.742,156.394 82.667,156.672 82.667 C 156.967 82.667,157.217 82.563,157.273 82.417 C 157.326 82.279,157.441 82.167,157.530 82.167 C 157.746 82.167,158.167 81.734,158.167 81.512 C 158.167 81.414,158.279 81.333,158.417 81.333 C 158.591 81.333,158.667 81.157,158.667 80.750 C 158.667 80.429,158.742 80.167,158.833 80.167 C 158.937 80.167,159.000 79.194,159.000 77.583 C 159.000 75.972,158.937 75.000,158.833 75.000 C 158.742 75.000,158.667 74.773,158.667 74.495 C 158.667 74.199,158.563 73.950,158.417 73.894 C 158.279 73.841,158.167 73.672,158.167 73.519 C 158.167 73.111,157.567 72.667,157.016 72.667 C 156.743 72.667,156.494 72.559,156.440 72.417 C 156.298 72.048,147.394 72.043,146.907 72.411 M163.948 72.410 C 163.806 72.551,163.579 72.667,163.442 72.667 C 163.305 72.667,162.886 72.971,162.510 73.342 L 161.828 74.018 161.872 78.467 L 161.917 82.917 163.079 82.967 C 164.718 83.037,164.667 83.172,164.667 78.790 C 164.667 74.164,164.175 74.633,169.012 74.648 C 173.819 74.664,173.332 74.208,173.339 78.696 C 173.346 82.947,173.365 83.000,174.902 83.000 C 175.619 83.000,175.833 82.942,175.833 82.750 C 175.833 82.612,175.908 82.500,176.000 82.500 C 176.106 82.500,176.167 81.083,176.167 78.583 C 176.167 76.083,176.106 74.667,176.000 74.667 C 175.908 74.667,175.833 74.404,175.833 74.083 C 175.833 73.676,175.758 73.500,175.583 73.500 C 175.446 73.500,175.333 73.420,175.333 73.321 C 175.333 73.032,174.883 72.667,174.526 72.667 C 174.344 72.667,174.163 72.573,174.125 72.458 C 174.010 72.112,164.291 72.066,163.948 72.410 M181.292 72.286 C 181.131 72.326,181.000 72.427,181.000 72.512 C 181.000 72.597,180.808 72.667,180.573 72.667 C 180.332 72.667,180.192 72.739,180.250 72.833 C 180.307 72.925,180.262 73.000,180.150 73.000 C 180.038 73.000,179.733 73.239,179.473 73.530 L 179.000 74.060 179.000 78.343 C 179.000 83.303,178.909 83.040,180.610 82.966 L 181.750 82.917 181.795 79.027 C 181.832 75.831,181.884 75.092,182.090 74.886 C 182.394 74.582,190.038 74.529,190.138 74.830 C 190.169 74.924,190.301 75.000,190.431 75.000 C 190.627 75.000,190.668 75.623,190.672 78.708 C 190.678 83.038,190.666 83.001,192.018 82.999 C 192.830 82.998,192.937 82.954,193.125 82.549 C 193.387 81.985,193.426 74.667,193.167 74.667 C 193.075 74.667,193.000 74.444,193.000 74.172 C 193.000 73.626,192.200 72.667,191.744 72.667 C 191.597 72.667,191.362 72.552,191.222 72.412 C 190.979 72.169,182.223 72.058,181.292 72.286 M198.492 72.426 C 198.382 72.558,198.204 72.667,198.096 72.667 C 197.730 72.667,197.003 73.082,197.001 73.292 C 197.001 73.406,196.925 73.500,196.833 73.500 C 196.742 73.500,196.667 73.642,196.667 73.816 C 196.667 73.989,196.554 74.174,196.417 74.227 C 196.206 74.308,196.167 74.836,196.167 77.555 L 196.167 80.787 196.583 81.100 C 196.813 81.272,197.000 81.475,197.000 81.551 C 197.000 81.715,197.428 82.167,197.583 82.167 C 197.642 82.167,197.803 82.279,197.940 82.417 C 198.078 82.554,198.373 82.667,198.595 82.667 C 198.818 82.667,199.000 82.742,199.000 82.833 C 199.000 83.192,204.299 83.042,204.494 82.678 C 205.235 81.292,204.472 80.667,202.040 80.667 C 200.576 80.667,200.086 80.610,199.893 80.417 C 199.755 80.279,199.498 80.167,199.321 80.167 C 199.065 80.167,199.000 80.048,199.000 79.583 L 199.000 79.000 204.542 78.995 L 210.083 78.990 210.389 78.570 C 210.730 78.102,210.753 74.275,210.416 74.035 C 210.325 73.970,210.143 73.710,210.013 73.458 C 209.883 73.206,209.677 73.000,209.555 73.000 C 209.433 73.000,209.333 72.925,209.333 72.833 C 209.333 72.742,209.230 72.667,209.104 72.667 C 208.977 72.667,208.779 72.552,208.663 72.412 C 208.357 72.043,198.800 72.056,198.492 72.426 M215.792 72.280 C 215.631 72.323,215.500 72.427,215.500 72.512 C 215.500 72.597,215.349 72.667,215.165 72.667 C 214.768 72.667,213.833 73.455,213.833 73.789 C 213.833 73.918,213.721 74.136,213.583 74.274 C 213.228 74.629,213.211 80.746,213.565 80.950 C 213.692 81.023,213.824 81.233,213.858 81.415 C 213.893 81.598,214.145 81.853,214.419 81.982 C 214.693 82.111,214.977 82.318,215.050 82.442 C 215.123 82.565,215.405 82.667,215.675 82.667 C 215.945 82.667,216.167 82.742,216.167 82.833 C 216.167 82.941,217.944 83.000,221.167 83.000 L 226.167 83.000 226.167 82.097 C 226.167 80.553,226.528 80.667,221.637 80.667 C 218.013 80.667,217.269 80.626,217.060 80.417 C 216.922 80.279,216.665 80.167,216.488 80.167 C 215.972 80.167,215.995 75.187,216.513 74.864 C 216.773 74.701,217.882 74.651,221.017 74.661 C 224.591 74.672,225.188 74.638,225.272 74.420 C 225.325 74.281,225.552 74.167,225.776 74.167 C 226.166 74.167,226.181 74.127,226.133 73.208 L 226.083 72.250 221.083 72.226 C 218.333 72.214,215.952 72.238,215.792 72.280 M239.265 72.426 C 239.132 72.558,238.887 72.669,238.720 72.672 C 238.350 72.678,237.833 73.050,237.833 73.310 C 237.833 73.415,237.777 73.500,237.708 73.501 C 237.179 73.506,237.000 74.561,237.005 77.639 C 237.011 80.759,237.110 81.333,237.643 81.333 C 237.748 81.333,237.833 81.414,237.833 81.512 C 237.833 81.706,238.244 82.167,238.417 82.167 C 238.476 82.167,238.636 82.279,238.774 82.417 C 238.911 82.554,239.191 82.667,239.395 82.667 C 239.600 82.667,239.844 82.744,239.938 82.838 C 240.044 82.944,241.080 82.992,242.679 82.963 L 245.250 82.917 245.300 82.039 C 245.375 80.742,245.245 80.667,242.917 80.667 C 240.747 80.667,239.833 80.290,239.833 79.397 L 239.833 79.000 245.357 79.000 C 250.421 79.000,250.898 78.976,251.101 78.708 C 251.372 78.351,251.433 74.167,251.167 74.167 C 251.075 74.167,251.000 74.029,251.000 73.861 C 251.000 73.589,250.155 72.667,249.906 72.667 C 249.853 72.667,249.695 72.552,249.555 72.412 C 249.187 72.044,239.634 72.056,239.265 72.426 M312.326 72.426 C 312.216 72.558,312.022 72.667,311.895 72.667 C 311.582 72.667,310.667 73.499,310.667 73.783 C 310.667 73.908,310.554 74.054,310.417 74.106 C 310.204 74.188,310.167 74.814,310.167 78.325 C 310.167 83.186,310.098 83.000,311.888 83.000 L 313.000 83.000 313.000 79.071 C 313.000 74.128,312.483 74.648,317.411 74.640 C 322.339 74.632,321.833 74.154,321.833 78.821 C 321.833 81.163,321.894 82.500,322.000 82.500 C 322.092 82.500,322.167 82.612,322.167 82.750 C 322.167 82.948,322.405 83.000,323.314 83.000 C 324.756 83.000,324.668 83.327,324.621 78.147 L 324.583 74.044 323.895 73.355 C 323.516 72.977,323.055 72.667,322.871 72.667 C 322.686 72.667,322.492 72.552,322.438 72.412 C 322.296 72.042,312.634 72.055,312.326 72.426 M329.875 72.284 C 329.669 72.324,329.500 72.426,329.500 72.512 C 329.500 72.597,329.356 72.667,329.179 72.667 C 328.819 72.667,327.833 73.576,327.833 73.909 C 327.833 74.028,327.723 74.218,327.588 74.330 C 327.128 74.711,327.308 80.711,327.792 81.131 C 327.998 81.309,328.167 81.541,328.167 81.645 C 328.167 81.748,328.263 81.833,328.380 81.833 C 328.497 81.833,328.703 81.985,328.837 82.171 C 328.973 82.360,329.358 82.553,329.710 82.610 C 330.057 82.665,330.381 82.776,330.430 82.855 C 330.479 82.935,332.353 83.000,334.593 83.000 C 337.198 83.000,338.667 83.060,338.667 83.167 C 338.667 83.334,337.958 83.380,336.064 83.336 C 335.337 83.319,334.970 83.387,334.784 83.573 C 334.641 83.716,334.368 83.833,334.179 83.833 C 333.699 83.833,333.666 85.464,334.138 85.891 C 334.491 86.211,338.500 86.311,338.500 86.000 C 338.500 85.908,338.765 85.833,339.089 85.833 C 339.458 85.833,339.713 85.740,339.773 85.583 C 339.826 85.446,339.992 85.333,340.143 85.333 C 340.474 85.333,341.231 84.696,341.381 84.292 C 341.441 84.131,341.567 84.000,341.661 84.000 C 341.968 84.000,341.891 74.345,341.583 74.227 C 341.446 74.174,341.333 73.989,341.333 73.816 C 341.333 73.642,341.258 73.500,341.167 73.500 C 341.075 73.500,341.000 73.387,341.000 73.250 C 341.000 73.112,340.887 73.000,340.750 73.000 C 340.612 73.000,340.500 72.925,340.500 72.833 C 340.500 72.742,340.345 72.667,340.155 72.667 C 339.965 72.667,339.697 72.554,339.560 72.417 C 339.319 72.176,331.026 72.063,329.875 72.284 M346.333 72.417 C 346.219 72.554,346.017 72.667,345.883 72.667 C 344.631 72.667,344.078 76.448,345.157 77.630 C 345.472 77.974,345.805 78.167,346.086 78.167 C 346.327 78.167,346.636 78.279,346.774 78.417 C 346.980 78.622,348.248 78.785,348.875 78.686 C 348.944 78.676,349.000 78.742,349.000 78.833 C 349.000 78.938,350.114 79.000,352.008 79.000 L 355.016 79.000 354.979 79.824 C 354.958 80.277,354.898 80.643,354.846 80.637 C 354.793 80.632,352.481 80.636,349.708 80.647 L 344.667 80.667 344.667 81.069 C 344.667 81.291,344.602 81.497,344.522 81.528 C 344.223 81.643,344.134 82.331,344.405 82.435 C 344.549 82.491,344.667 82.640,344.667 82.768 C 344.667 83.055,355.573 83.120,355.750 82.833 C 355.807 82.742,356.001 82.667,356.182 82.667 C 356.363 82.667,356.554 82.554,356.606 82.417 C 356.659 82.279,356.805 82.167,356.931 82.167 C 357.057 82.167,357.207 81.979,357.265 81.750 C 357.322 81.521,357.474 81.333,357.601 81.333 C 358.074 81.333,357.911 78.162,357.414 77.691 C 357.186 77.475,357.000 77.231,357.000 77.149 C 357.000 77.067,356.813 77.000,356.583 77.000 C 356.354 77.000,356.167 76.925,356.167 76.833 C 356.167 76.742,355.912 76.667,355.601 76.667 C 355.252 76.667,354.999 76.571,354.940 76.417 C 354.859 76.205,354.301 76.167,351.339 76.167 C 349.113 76.167,347.833 76.106,347.833 76.000 C 347.833 75.908,347.721 75.833,347.583 75.833 C 347.409 75.833,347.333 75.657,347.333 75.250 C 347.333 74.726,347.380 74.666,347.792 74.662 C 350.633 74.633,351.562 74.564,351.625 74.375 C 351.663 74.260,351.773 74.167,351.869 74.167 C 352.125 74.167,352.691 73.466,352.602 73.260 C 352.560 73.163,352.426 72.878,352.305 72.626 L 352.083 72.169 349.312 72.168 C 347.051 72.167,346.503 72.213,346.333 72.417 M305.432 73.083 C 305.374 73.313,305.253 73.500,305.163 73.500 C 304.867 73.500,304.952 81.924,305.254 82.508 C 305.512 83.006,306.747 83.215,307.570 82.899 C 308.028 82.723,307.961 73.350,307.498 72.954 C 306.934 72.471,305.564 72.557,305.432 73.083 M155.925 74.902 C 156.115 75.091,156.167 75.685,156.167 77.659 L 156.167 80.175 155.663 80.276 C 155.386 80.331,155.119 80.442,155.070 80.522 C 154.921 80.762,148.696 80.703,148.404 80.458 C 148.267 80.344,148.051 80.156,147.923 80.042 C 147.795 79.927,147.610 79.833,147.512 79.833 C 147.394 79.833,147.333 79.072,147.333 77.583 C 147.333 76.346,147.394 75.333,147.469 75.333 C 147.543 75.333,147.759 75.188,147.950 75.011 C 148.379 74.611,148.829 74.574,152.634 74.622 C 155.035 74.652,155.735 74.712,155.925 74.902 M207.928 74.905 C 208.065 75.042,208.167 75.466,208.167 75.905 L 208.167 76.667 203.583 76.667 L 199.000 76.667 199.000 75.905 C 199.000 74.559,198.977 74.565,204.137 74.625 C 206.953 74.658,207.740 74.716,207.928 74.905 M248.762 74.905 C 248.899 75.042,249.000 75.466,249.000 75.905 L 249.000 76.667 244.417 76.667 L 239.833 76.667 239.833 76.000 C 239.833 75.633,239.908 75.333,240.000 75.333 C 240.092 75.333,240.167 75.188,240.167 75.010 C 240.167 74.594,240.443 74.572,244.970 74.625 C 247.786 74.658,248.573 74.716,248.762 74.905 M266.129 77.375 C 266.171 79.950,266.152 80.168,265.879 80.179 C 265.335 80.203,264.958 80.309,264.778 80.488 C 264.450 80.816,258.321 80.722,257.829 80.382 C 257.008 79.814,257.000 79.788,257.000 77.551 C 257.000 74.507,256.941 74.538,262.833 74.567 L 266.083 74.583 266.129 77.375 M338.760 74.903 C 338.892 75.035,339.000 75.256,339.000 75.395 C 339.000 75.534,339.075 75.693,339.167 75.750 C 339.265 75.811,339.333 76.835,339.333 78.260 L 339.333 80.667 335.507 80.667 L 331.680 80.667 330.923 80.210 L 330.167 79.752 330.167 77.609 C 330.167 74.530,330.126 74.554,335.468 74.623 C 337.862 74.654,338.572 74.714,338.760 74.903 " stroke="none" fill="#446fac" fill-rule="evenodd"></path><path id="path3" d="M204.244 42.167 C 204.244 47.163,204.266 49.206,204.292 46.708 C 204.317 44.210,204.317 40.123,204.292 37.625 C 204.266 35.127,204.244 37.171,204.244 42.167 M56.125 54.291 C 57.248 54.320,59.085 54.320,60.208 54.291 C 61.331 54.262,60.413 54.239,58.167 54.239 C 55.921 54.239,55.002 54.262,56.125 54.291 M175.218 54.291 C 176.484 54.320,178.509 54.320,179.718 54.291 C 180.927 54.263,179.892 54.240,177.417 54.240 C 174.942 54.240,173.952 54.263,175.218 54.291 M314.047 54.289 C 314.485 54.324,315.160 54.323,315.547 54.288 C 315.934 54.254,315.575 54.225,314.750 54.226 C 313.925 54.226,313.609 54.255,314.047 54.289 M268.667 74.796 C 268.667 77.281,268.723 79.348,268.792 79.391 C 268.933 79.478,268.900 70.511,268.758 70.369 C 268.708 70.319,268.667 72.311,268.667 74.796 M261.134 74.624 C 262.078 74.654,263.578 74.654,264.467 74.624 C 265.356 74.594,264.583 74.570,262.750 74.570 C 260.917 74.570,260.189 74.595,261.134 74.624 " stroke="none" fill="#aaaaff" fill-rule="evenodd"></path><path id="path4" d="M282.550 71.000 C 282.550 71.504,282.581 71.710,282.619 71.458 C 282.658 71.206,282.658 70.794,282.619 70.542 C 282.581 70.290,282.550 70.496,282.550 71.000 M282.571 78.417 C 282.571 80.342,282.595 81.106,282.624 80.116 C 282.654 79.126,282.654 77.551,282.624 76.616 C 282.595 75.681,282.570 76.492,282.571 78.417 " stroke="none" fill="#00ffff" fill-rule="evenodd"></path></g></svg>