<svg id="svg" version="1.1" width="400" height="104" xmlns="http://www.w3.org/2000/svg" xmlns:xlink="http://www.w3.org/1999/xlink" style="display: block;"><g id="svgg"><path id="path0" d="" stroke="none" fill="#000000" fill-rule="evenodd"></path><path id="path1" d="M41.250 16.000 C 41.193 16.092,40.851 16.167,40.490 16.167 C 40.129 16.167,39.833 16.244,39.833 16.337 C 39.833 16.431,39.646 16.580,39.417 16.667 C 39.042 16.809,38.922 17.004,38.980 17.375 C 38.991 17.444,38.925 17.500,38.833 17.500 C 38.742 17.500,38.667 17.794,38.667 18.153 C 38.667 18.512,38.591 18.831,38.499 18.861 C 38.369 18.905,38.265 35.336,38.331 45.385 C 38.332 45.551,38.408 45.640,38.500 45.583 C 38.605 45.519,38.667 45.887,38.667 46.573 C 38.667 47.191,38.739 47.667,38.833 47.667 C 38.925 47.667,39.000 47.854,39.000 48.083 C 39.000 48.313,39.074 48.500,39.163 48.500 C 39.253 48.500,39.374 48.687,39.432 48.917 C 39.489 49.146,39.603 49.333,39.685 49.333 C 39.766 49.333,39.833 49.414,39.833 49.512 C 39.833 49.610,39.927 49.789,40.042 49.910 C 40.156 50.031,40.391 50.324,40.563 50.562 C 40.735 50.799,40.931 50.959,40.999 50.917 C 41.162 50.816,41.833 51.402,41.833 51.645 C 41.833 51.748,41.946 51.833,42.083 51.833 C 42.221 51.833,42.333 51.908,42.333 52.000 C 42.333 52.092,42.525 52.167,42.760 52.167 C 43.002 52.167,43.142 52.239,43.083 52.333 C 42.995 52.476,43.213 52.539,43.610 52.485 C 43.671 52.477,43.787 52.589,43.868 52.735 C 43.950 52.881,44.158 53.000,44.332 53.000 C 44.505 53.000,44.693 53.075,44.750 53.167 C 44.807 53.258,45.139 53.333,45.489 53.333 C 45.840 53.333,46.215 53.441,46.325 53.574 C 46.452 53.727,46.829 53.812,47.363 53.808 C 47.824 53.804,48.283 53.883,48.384 53.984 C 48.607 54.207,67.765 54.246,67.902 54.024 C 67.950 53.945,68.416 53.837,68.936 53.783 C 69.455 53.730,69.960 53.607,70.057 53.510 C 70.154 53.413,70.481 53.333,70.783 53.333 C 71.086 53.333,71.333 53.258,71.333 53.167 C 71.333 53.075,71.523 53.000,71.755 53.000 C 71.987 53.000,72.220 52.887,72.273 52.750 C 72.326 52.612,72.508 52.500,72.679 52.500 C 72.989 52.500,74.705 51.503,74.408 51.496 C 74.321 51.494,74.494 51.372,74.792 51.225 C 75.090 51.079,75.333 50.855,75.333 50.729 C 75.333 50.603,75.419 50.500,75.523 50.500 C 75.751 50.500,76.154 50.000,76.161 49.708 C 76.164 49.594,76.319 49.348,76.505 49.161 C 76.691 48.975,76.888 48.600,76.943 48.328 C 76.997 48.056,77.107 47.833,77.188 47.833 C 77.268 47.833,77.333 47.540,77.333 47.181 C 77.333 46.822,77.411 46.502,77.506 46.470 C 77.762 46.385,77.778 32.787,77.523 32.702 C 77.416 32.666,77.333 32.283,77.333 31.819 C 77.333 31.369,77.267 31.000,77.185 31.000 C 77.104 31.000,76.990 30.748,76.932 30.440 C 76.874 30.131,76.678 29.745,76.497 29.580 C 76.315 29.416,76.167 29.194,76.167 29.088 C 76.167 28.817,75.265 27.833,75.017 27.833 C 74.905 27.833,74.853 27.770,74.900 27.694 C 74.948 27.617,74.706 27.396,74.364 27.204 C 74.022 27.012,73.561 26.698,73.341 26.507 C 73.120 26.315,72.860 26.185,72.763 26.218 C 72.666 26.250,72.487 26.177,72.365 26.055 C 72.243 25.933,71.919 25.833,71.645 25.833 C 71.355 25.833,71.190 25.764,71.250 25.667 C 71.311 25.568,71.120 25.500,70.780 25.500 C 70.465 25.500,70.114 25.387,70.000 25.250 C 69.863 25.084,69.490 25.000,68.896 25.000 C 68.368 25.000,68.000 24.926,68.000 24.821 C 68.000 24.722,67.794 24.655,67.542 24.672 C 67.290 24.688,62.190 24.694,56.208 24.684 L 45.333 24.667 45.333 21.083 C 45.333 18.978,45.269 17.500,45.178 17.500 C 45.092 17.500,44.973 17.346,44.914 17.157 C 44.854 16.969,44.624 16.745,44.402 16.661 C 44.181 16.577,44.000 16.431,44.000 16.337 C 44.000 16.244,43.779 16.167,43.510 16.167 C 43.240 16.167,42.973 16.092,42.917 16.000 C 42.860 15.908,42.485 15.833,42.083 15.833 C 41.682 15.833,41.307 15.908,41.250 16.000 M66.908 31.176 C 66.995 31.263,67.419 31.333,67.849 31.333 C 68.404 31.333,68.660 31.409,68.731 31.594 C 68.786 31.737,68.899 31.812,68.982 31.761 C 69.186 31.635,70.091 32.500,70.238 32.962 C 70.303 33.166,70.426 33.333,70.511 33.333 C 70.605 33.333,70.667 35.824,70.667 39.571 L 70.667 45.809 70.280 46.113 C 70.068 46.280,69.891 46.489,69.886 46.577 C 69.882 46.666,69.740 46.816,69.570 46.911 C 69.401 47.006,68.983 47.250,68.642 47.454 C 68.227 47.701,67.712 47.834,67.088 47.855 C 66.574 47.871,66.115 47.949,66.067 48.026 C 65.952 48.212,51.046 48.209,50.931 48.023 C 50.882 47.944,50.261 47.865,49.551 47.849 C 48.842 47.833,48.221 47.754,48.172 47.675 C 48.123 47.595,47.745 47.397,47.333 47.234 C 46.574 46.935,45.834 46.261,45.834 45.870 C 45.833 45.752,45.721 45.613,45.583 45.560 C 45.366 45.477,45.333 44.507,45.333 38.233 L 45.333 31.003 55.208 30.960 C 65.733 30.914,66.661 30.931,66.908 31.176 M88.285 35.219 C 88.242 35.332,87.991 35.442,87.728 35.463 C 87.465 35.485,87.225 35.577,87.194 35.668 C 87.164 35.759,87.033 35.833,86.903 35.833 C 86.761 35.833,86.667 36.002,86.667 36.255 C 86.667 36.487,86.564 36.717,86.438 36.765 C 85.896 36.973,86.088 39.460,86.690 40.022 C 87.814 41.072,86.930 41.000,98.767 41.000 L 109.627 41.000 110.314 40.314 C 110.916 39.711,111.069 39.350,110.986 38.727 C 110.978 38.668,111.072 38.557,111.194 38.480 C 111.361 38.374,111.364 38.338,111.208 38.336 C 111.094 38.334,111.000 38.254,111.000 38.157 C 111.000 38.060,111.087 38.034,111.192 38.099 C 111.315 38.175,111.339 38.145,111.261 38.017 C 111.192 37.907,111.083 37.464,111.017 37.033 C 110.945 36.563,110.818 36.267,110.699 36.292 C 110.589 36.315,110.500 36.253,110.500 36.155 C 110.500 35.920,110.193 35.650,109.522 35.293 C 108.819 34.918,88.428 34.847,88.285 35.219 " stroke="none" fill="#6c6c6c" fill-rule="evenodd"></path><path id="path2" d="M38.390 18.375 C 38.171 18.725,38.187 18.982,38.422 18.892 C 38.544 18.845,38.633 18.662,38.620 18.487 C 38.591 18.110,38.563 18.097,38.390 18.375 M77.741 39.500 C 77.741 42.479,77.764 43.698,77.791 42.208 C 77.819 40.719,77.819 38.281,77.791 36.792 C 77.764 35.302,77.741 36.521,77.741 39.500 M111.167 37.653 C 111.167 37.737,111.121 37.925,111.066 38.070 C 111.010 38.215,111.031 38.333,111.112 38.333 C 111.194 38.333,111.276 38.146,111.295 37.917 C 111.314 37.688,111.293 37.500,111.248 37.500 C 111.203 37.500,111.167 37.569,111.167 37.653 M72.273 52.750 C 72.220 52.887,72.250 53.000,72.339 53.000 C 72.427 53.000,72.500 52.930,72.500 52.846 C 72.500 52.761,72.631 52.657,72.792 52.615 C 73.022 52.555,73.008 52.535,72.726 52.519 C 72.530 52.509,72.326 52.612,72.273 52.750 M53.609 54.375 C 53.652 54.444,55.740 54.500,58.250 54.500 C 60.760 54.500,62.848 54.444,62.891 54.375 C 62.933 54.306,60.845 54.250,58.250 54.250 C 55.655 54.250,53.567 54.306,53.609 54.375 M172.391 54.375 C 172.348 54.444,174.564 54.500,177.314 54.500 C 180.064 54.500,182.348 54.444,182.391 54.375 C 182.433 54.306,180.218 54.250,177.468 54.250 C 174.718 54.250,172.433 54.306,172.391 54.375 M312.724 54.375 C 312.682 54.444,313.551 54.500,314.657 54.500 C 315.762 54.500,316.667 54.444,316.667 54.375 C 316.667 54.306,315.797 54.250,314.734 54.250 C 313.671 54.250,312.767 54.306,312.724 54.375 M268.906 75.000 C 268.906 77.337,268.929 78.294,268.958 77.125 C 268.987 75.956,268.987 74.044,268.958 72.875 C 268.929 71.706,268.906 72.662,268.906 75.000 M135.375 74.624 C 136.360 74.654,137.973 74.654,138.958 74.624 C 139.944 74.595,139.137 74.571,137.167 74.571 C 135.196 74.571,134.390 74.595,135.375 74.624 M150.701 74.623 C 151.316 74.655,152.366 74.656,153.034 74.624 C 153.703 74.592,153.200 74.566,151.917 74.566 C 150.633 74.565,150.086 74.591,150.701 74.623 M167.708 74.624 C 168.419 74.655,169.581 74.655,170.292 74.624 C 171.002 74.593,170.421 74.567,169.000 74.567 C 167.579 74.567,166.998 74.593,167.708 74.624 M184.875 74.624 C 185.585 74.655,186.748 74.655,187.458 74.624 C 188.169 74.593,187.588 74.567,186.167 74.567 C 184.746 74.567,184.165 74.593,184.875 74.624 M202.466 74.624 C 203.227 74.655,204.427 74.655,205.133 74.624 C 205.839 74.593,205.217 74.567,203.750 74.567 C 202.283 74.568,201.706 74.593,202.466 74.624 M219.708 74.624 C 220.694 74.654,222.306 74.654,223.292 74.624 C 224.277 74.595,223.471 74.571,221.500 74.571 C 219.529 74.571,218.723 74.595,219.708 74.624 M232.796 74.622 C 233.188 74.657,233.788 74.657,234.129 74.621 C 234.471 74.585,234.150 74.557,233.417 74.557 C 232.683 74.558,232.404 74.587,232.796 74.622 M243.300 74.624 C 244.060 74.655,245.260 74.655,245.966 74.624 C 246.672 74.593,246.050 74.567,244.583 74.567 C 243.117 74.568,242.539 74.593,243.300 74.624 M283.296 74.622 C 283.688 74.657,284.288 74.657,284.629 74.621 C 284.971 74.585,284.650 74.557,283.917 74.557 C 283.183 74.558,282.904 74.587,283.296 74.622 M292.792 74.624 C 293.640 74.654,295.027 74.654,295.875 74.624 C 296.723 74.594,296.029 74.569,294.333 74.569 C 292.637 74.569,291.944 74.594,292.792 74.624 M316.216 74.624 C 316.931 74.655,318.056 74.655,318.716 74.624 C 319.376 74.592,318.792 74.566,317.417 74.567 C 316.042 74.567,315.501 74.593,316.216 74.624 M333.549 74.624 C 334.171 74.656,335.146 74.656,335.715 74.623 C 336.284 74.591,335.775 74.564,334.583 74.565 C 333.392 74.565,332.926 74.592,333.549 74.624 M349.129 74.622 C 349.521 74.657,350.121 74.657,350.463 74.621 C 350.804 74.585,350.483 74.557,349.750 74.557 C 349.017 74.558,348.737 74.587,349.129 74.622 " stroke="none" fill="#808080" fill-rule="evenodd"></path><path id="path3" d="" stroke="none" fill="#929292" fill-rule="evenodd"></path><path id="path4" d="" stroke="none" fill="#bfbfbf" fill-rule="evenodd"></path><path id="path5" d="" stroke="none" fill="#ffffff" fill-rule="evenodd"></path><path id="path6" d="" stroke="none" fill="#404080" fill-rule="evenodd"></path><path id="path7" d="M297.408 39.417 C 297.408 42.350,297.430 43.527,297.458 42.031 C 297.486 40.536,297.486 38.136,297.458 36.698 C 297.430 35.260,297.408 36.483,297.408 39.417 M279.383 71.167 C 279.383 71.671,279.415 71.877,279.453 71.625 C 279.491 71.373,279.491 70.960,279.453 70.708 C 279.415 70.456,279.383 70.662,279.383 71.167 M279.333 78.133 L 279.416 81.750 279.462 78.262 C 279.486 76.343,279.449 74.716,279.378 74.645 C 279.308 74.574,279.287 76.144,279.333 78.133 " stroke="none" fill="#0000ff" fill-rule="evenodd"></path><path id="path8" d="M38.246 32.000 C 38.246 38.737,38.266 41.494,38.292 38.125 C 38.317 34.756,38.317 29.244,38.292 25.875 C 38.266 22.506,38.246 25.262,38.246 32.000 M329.394 34.583 C 329.395 35.500,329.423 35.854,329.456 35.369 C 329.490 34.885,329.490 34.135,329.456 33.703 C 329.421 33.270,329.394 33.667,329.394 34.583 M289.744 42.083 C 289.744 47.033,289.766 49.034,289.792 46.530 C 289.818 44.026,289.817 39.976,289.792 37.530 C 289.766 35.084,289.744 37.133,289.744 42.083 M196.575 39.500 C 196.575 42.571,196.597 43.827,196.625 42.292 C 196.652 40.756,196.652 38.244,196.625 36.708 C 196.597 35.173,196.575 36.429,196.575 39.500 M148.458 54.618 C 148.665 54.657,149.002 54.657,149.208 54.618 C 149.415 54.578,149.246 54.545,148.833 54.545 C 148.421 54.545,148.252 54.578,148.458 54.618 M299.900 79.000 C 299.900 80.421,299.926 81.002,299.957 80.292 C 299.988 79.581,299.988 78.419,299.957 77.708 C 299.926 76.998,299.900 77.579,299.900 79.000 M350.208 78.957 C 350.827 78.989,351.840 78.989,352.458 78.957 C 353.077 78.925,352.571 78.899,351.333 78.899 C 350.096 78.899,349.590 78.925,350.208 78.957 " stroke="none" fill="#5555aa" fill-rule="evenodd"></path><path id="path9" d="M335.375 83.453 C 335.627 83.491,336.040 83.491,336.292 83.453 C 336.544 83.415,336.337 83.383,335.833 83.383 C 335.329 83.383,335.123 83.415,335.375 83.453 " stroke="none" fill="#008080" fill-rule="evenodd"></path><path id="path10" d="M122.250 16.000 C 122.193 16.092,121.969 16.167,121.752 16.167 C 121.535 16.167,121.256 16.267,121.133 16.390 C 121.010 16.513,120.743 16.704,120.538 16.813 C 120.334 16.922,120.167 17.122,120.167 17.256 C 120.167 17.390,120.092 17.500,120.000 17.500 C 119.890 17.500,119.833 23.495,119.833 35.153 L 119.833 52.805 120.468 53.486 C 120.838 53.882,121.255 54.167,121.468 54.167 C 121.669 54.167,121.833 54.242,121.833 54.333 C 121.833 54.432,122.444 54.500,123.333 54.500 C 124.222 54.500,124.833 54.432,124.833 54.333 C 124.833 54.242,124.946 54.167,125.083 54.167 C 125.221 54.167,125.477 54.023,125.653 53.847 C 125.828 53.672,126.016 53.572,126.069 53.625 C 126.123 53.678,126.167 53.575,126.167 53.394 C 126.167 53.214,126.247 52.986,126.345 52.888 C 126.624 52.609,126.640 52.343,126.654 47.864 L 126.667 43.644 127.042 43.761 C 127.248 43.825,127.442 43.942,127.472 44.022 C 127.503 44.102,127.665 44.167,127.833 44.167 C 128.001 44.167,128.165 44.245,128.197 44.341 C 128.229 44.436,128.423 44.527,128.627 44.543 C 128.832 44.558,129.001 44.649,129.001 44.744 C 129.003 44.915,129.753 45.333,130.059 45.333 C 130.147 45.333,130.464 45.521,130.765 45.750 C 131.065 45.979,131.429 46.167,131.572 46.167 C 131.716 46.167,131.833 46.242,131.833 46.333 C 131.833 46.425,132.023 46.500,132.255 46.500 C 132.487 46.500,132.720 46.612,132.773 46.750 C 132.826 46.887,133.011 47.000,133.184 47.000 C 133.358 47.000,133.500 47.075,133.500 47.167 C 133.500 47.258,133.655 47.333,133.845 47.333 C 134.035 47.333,134.303 47.446,134.440 47.583 C 134.578 47.721,134.873 47.833,135.095 47.833 C 135.318 47.833,135.500 47.908,135.500 48.000 C 135.500 48.092,135.650 48.167,135.833 48.167 C 136.017 48.167,136.167 48.242,136.167 48.333 C 136.167 48.425,136.319 48.500,136.505 48.500 C 136.691 48.500,136.887 48.612,136.940 48.750 C 136.992 48.887,137.215 49.000,137.434 49.000 C 137.654 49.000,137.833 49.075,137.833 49.167 C 137.833 49.258,138.013 49.333,138.232 49.333 C 138.452 49.333,138.674 49.446,138.727 49.583 C 138.780 49.721,138.948 49.833,139.100 49.833 C 139.253 49.833,139.500 49.965,139.650 50.125 C 139.982 50.481,140.940 51.000,141.264 51.000 C 141.394 51.000,141.500 51.075,141.500 51.167 C 141.500 51.258,141.642 51.333,141.816 51.333 C 141.989 51.333,142.174 51.446,142.227 51.583 C 142.280 51.721,142.475 51.833,142.661 51.833 C 142.848 51.833,143.000 51.908,143.000 52.000 C 143.000 52.092,143.155 52.167,143.345 52.167 C 143.535 52.167,143.795 52.260,143.923 52.375 C 144.465 52.861,144.635 52.976,144.708 52.903 C 144.751 52.860,144.881 52.940,144.997 53.079 C 145.113 53.219,145.305 53.333,145.424 53.333 C 145.705 53.333,146.664 53.880,146.666 54.042 C 146.666 54.110,146.850 54.167,147.073 54.167 C 147.297 54.167,147.527 54.242,147.583 54.333 C 147.640 54.425,148.244 54.500,148.927 54.500 C 149.642 54.500,150.167 54.430,150.167 54.333 C 150.167 54.242,150.305 54.167,150.474 54.167 C 150.857 54.167,151.329 53.663,151.346 53.237 C 151.354 53.052,151.396 53.007,151.445 53.130 C 151.496 53.255,151.662 53.086,151.849 52.720 C 152.194 52.043,152.310 49.833,152.000 49.833 C 151.908 49.833,151.833 49.732,151.833 49.609 C 151.833 49.285,151.312 48.734,150.875 48.596 C 150.669 48.531,150.500 48.424,150.500 48.358 C 150.500 48.292,150.332 48.225,150.127 48.210 C 149.923 48.194,149.729 48.103,149.697 48.007 C 149.665 47.912,149.544 47.833,149.428 47.833 C 149.105 47.833,148.167 47.328,148.167 47.154 C 148.167 47.070,147.979 47.000,147.750 47.000 C 147.521 47.000,147.333 46.925,147.333 46.833 C 147.333 46.742,147.193 46.667,147.020 46.667 C 146.848 46.667,146.614 46.554,146.500 46.417 C 146.386 46.279,146.189 46.167,146.063 46.167 C 145.937 46.167,145.833 46.092,145.833 46.000 C 145.833 45.908,145.646 45.833,145.417 45.833 C 145.188 45.833,145.000 45.766,145.000 45.685 C 145.000 45.603,144.813 45.489,144.583 45.432 C 144.354 45.374,144.167 45.253,144.167 45.163 C 144.167 45.074,144.013 45.000,143.826 45.000 C 143.639 45.000,143.283 44.812,143.036 44.583 C 142.789 44.354,142.491 44.167,142.374 44.167 C 142.156 44.167,141.482 43.830,141.333 43.647 C 141.287 43.591,141.081 43.492,140.875 43.428 C 140.669 43.364,140.500 43.241,140.500 43.155 C 140.500 43.070,140.313 43.000,140.083 43.000 C 139.854 43.000,139.667 42.925,139.667 42.833 C 139.667 42.742,139.525 42.667,139.351 42.667 C 139.178 42.667,138.992 42.554,138.940 42.417 C 138.887 42.279,138.691 42.167,138.505 42.167 C 138.319 42.167,138.167 42.092,138.167 42.000 C 138.167 41.908,137.979 41.833,137.750 41.833 C 137.521 41.833,137.333 41.758,137.333 41.667 C 137.333 41.575,137.181 41.500,136.995 41.500 C 136.809 41.500,136.613 41.387,136.560 41.250 C 136.508 41.112,136.327 41.000,136.159 41.000 C 135.991 41.000,135.807 40.925,135.750 40.833 C 135.693 40.742,135.473 40.667,135.261 40.667 C 135.048 40.667,134.781 40.554,134.667 40.417 C 134.553 40.279,134.318 40.167,134.146 40.167 C 133.974 40.167,133.833 40.092,133.833 40.000 C 133.833 39.908,133.646 39.833,133.417 39.833 C 133.188 39.833,133.000 39.760,133.000 39.670 C 133.000 39.580,132.813 39.459,132.583 39.402 C 132.354 39.344,132.167 39.258,132.167 39.210 C 132.167 39.042,132.886 38.500,133.109 38.500 C 133.232 38.500,133.333 38.425,133.333 38.333 C 133.333 38.242,133.516 38.167,133.740 38.167 C 133.964 38.167,134.193 38.092,134.250 38.000 C 134.307 37.908,134.501 37.833,134.682 37.833 C 134.863 37.833,135.054 37.721,135.106 37.583 C 135.159 37.446,135.382 37.333,135.601 37.333 C 135.821 37.333,136.000 37.258,136.000 37.167 C 136.000 37.075,136.183 37.000,136.407 37.000 C 136.631 37.000,136.855 36.933,136.905 36.852 C 137.041 36.631,138.620 35.833,138.919 35.833 C 139.061 35.833,139.220 35.721,139.273 35.583 C 139.326 35.446,139.548 35.333,139.768 35.333 C 139.987 35.333,140.167 35.258,140.167 35.167 C 140.167 35.075,140.270 35.000,140.396 35.000 C 140.523 35.000,140.719 34.888,140.832 34.752 C 140.945 34.615,141.098 34.541,141.172 34.587 C 141.246 34.632,141.420 34.557,141.558 34.418 C 141.696 34.280,141.965 34.167,142.155 34.167 C 142.345 34.167,142.500 34.092,142.500 34.000 C 142.500 33.908,142.652 33.833,142.839 33.833 C 143.025 33.833,143.220 33.721,143.273 33.583 C 143.326 33.446,143.548 33.333,143.768 33.333 C 143.987 33.333,144.167 33.258,144.167 33.167 C 144.167 33.075,144.346 33.000,144.566 33.000 C 144.785 33.000,145.009 32.883,145.064 32.739 C 145.119 32.596,145.234 32.522,145.319 32.574 C 145.404 32.627,145.586 32.557,145.725 32.418 C 145.863 32.280,146.094 32.167,146.238 32.167 C 146.382 32.167,146.500 32.092,146.500 32.000 C 146.500 31.908,146.700 31.833,146.945 31.833 C 147.190 31.833,147.514 31.721,147.666 31.584 C 147.818 31.447,148.142 31.318,148.388 31.298 C 148.633 31.277,148.833 31.202,148.833 31.130 C 148.833 31.059,148.979 31.000,149.157 31.000 C 149.335 31.000,149.525 30.927,149.581 30.838 C 149.636 30.749,149.959 30.547,150.299 30.390 C 151.638 29.772,152.167 28.977,152.167 27.576 C 152.167 26.859,152.096 26.333,152.000 26.333 C 151.908 26.333,151.833 26.181,151.833 25.995 C 151.833 25.809,151.721 25.613,151.583 25.560 C 151.446 25.508,151.333 25.387,151.333 25.292 C 151.333 25.075,150.821 24.679,150.530 24.672 C 150.409 24.669,150.201 24.558,150.068 24.426 C 149.771 24.128,147.974 24.161,147.872 24.466 C 147.836 24.576,147.661 24.667,147.484 24.667 C 147.191 24.667,146.867 24.796,146.167 25.194 C 146.029 25.272,145.804 25.378,145.667 25.430 C 145.529 25.482,145.286 25.594,145.127 25.679 C 144.968 25.764,144.720 25.833,144.576 25.833 C 144.432 25.833,144.356 25.902,144.408 25.986 C 144.460 26.071,144.277 26.189,144.001 26.250 C 143.726 26.310,143.500 26.429,143.500 26.513 C 143.500 26.598,143.313 26.667,143.083 26.667 C 142.854 26.667,142.667 26.742,142.667 26.833 C 142.667 26.925,142.521 27.000,142.343 27.000 C 142.165 27.000,141.976 27.070,141.923 27.156 C 141.797 27.361,140.844 27.833,140.558 27.833 C 140.434 27.833,140.333 27.908,140.333 28.000 C 140.333 28.092,140.181 28.167,139.995 28.167 C 139.809 28.167,139.613 28.279,139.560 28.417 C 139.508 28.554,139.327 28.667,139.159 28.667 C 138.991 28.667,138.807 28.742,138.750 28.833 C 138.693 28.925,138.499 29.000,138.318 29.000 C 138.137 29.000,137.952 29.097,137.907 29.215 C 137.862 29.333,137.659 29.442,137.456 29.457 C 137.254 29.473,137.062 29.564,137.030 29.659 C 136.998 29.755,136.877 29.833,136.762 29.833 C 136.438 29.833,135.500 30.338,135.500 30.512 C 135.500 30.597,135.369 30.668,135.208 30.670 C 135.048 30.672,134.729 30.821,134.500 31.000 C 134.271 31.179,133.952 31.328,133.792 31.330 C 133.631 31.332,133.500 31.402,133.500 31.487 C 133.500 31.571,133.256 31.692,132.958 31.756 C 132.660 31.820,132.342 31.928,132.250 31.996 C 132.158 32.065,131.877 32.170,131.625 32.230 C 131.373 32.290,131.167 32.413,131.167 32.503 C 131.167 32.593,130.979 32.667,130.750 32.667 C 130.521 32.667,130.333 32.742,130.333 32.833 C 130.333 32.925,130.189 33.000,130.014 33.000 C 129.652 33.000,128.669 33.517,128.668 33.708 C 128.667 33.777,128.479 33.833,128.250 33.833 C 128.021 33.833,127.833 33.908,127.833 34.000 C 127.833 34.092,127.726 34.167,127.595 34.167 C 127.464 34.167,127.236 34.288,127.087 34.437 C 126.665 34.859,126.673 35.010,126.664 26.203 C 126.656 19.094,126.618 17.809,126.411 17.601 C 126.277 17.467,126.166 17.258,126.166 17.137 C 126.164 16.812,125.132 16.167,124.615 16.167 C 124.368 16.167,124.167 16.092,124.167 16.000 C 124.167 15.908,123.759 15.833,123.260 15.833 C 122.761 15.833,122.307 15.908,122.250 16.000 M348.750 16.000 C 348.693 16.092,348.387 16.167,348.068 16.167 C 347.708 16.167,347.453 16.261,347.394 16.417 C 347.341 16.554,347.156 16.667,346.982 16.667 C 346.809 16.667,346.667 16.771,346.667 16.899 C 346.667 17.027,346.554 17.174,346.417 17.227 C 346.279 17.280,346.167 17.508,346.167 17.735 C 346.167 17.962,346.092 18.193,346.000 18.250 C 345.898 18.313,345.833 19.585,345.833 21.510 L 345.833 24.667 344.498 24.667 C 342.756 24.667,341.833 25.181,341.833 26.153 C 341.833 26.420,341.746 26.668,341.639 26.704 C 341.526 26.741,341.444 27.111,341.444 27.583 C 341.444 28.056,341.526 28.425,341.639 28.463 C 341.746 28.499,341.833 28.784,341.833 29.097 C 341.833 29.410,341.908 29.667,342.000 29.667 C 342.092 29.667,342.167 29.779,342.167 29.917 C 342.167 30.054,342.247 30.167,342.345 30.167 C 342.443 30.167,342.641 30.283,342.783 30.426 C 342.926 30.569,343.145 30.647,343.269 30.599 C 343.394 30.551,343.478 30.603,343.456 30.714 C 343.429 30.855,343.788 30.932,344.625 30.966 L 345.833 31.015 345.833 41.591 C 345.833 47.523,345.897 52.167,345.979 52.167 C 346.059 52.167,346.168 52.373,346.220 52.625 C 346.330 53.161,347.205 54.167,347.560 54.167 C 347.695 54.167,347.832 54.245,347.864 54.342 C 348.085 55.005,352.167 54.260,352.167 53.557 C 352.167 53.434,352.240 53.333,352.330 53.333 C 352.420 53.333,352.541 53.146,352.598 52.917 C 352.656 52.688,352.770 52.500,352.851 52.500 C 352.937 52.500,353.000 47.934,353.000 41.750 L 353.000 31.000 357.917 31.000 C 360.621 31.000,362.874 31.003,362.923 31.006 C 362.972 31.009,363.127 30.897,363.268 30.756 C 363.409 30.615,363.650 30.497,363.804 30.494 C 364.142 30.486,365.000 29.294,365.000 28.831 C 365.000 28.649,365.075 28.500,365.167 28.500 C 365.258 28.500,365.333 28.087,365.333 27.583 C 365.333 27.079,365.258 26.667,365.167 26.667 C 365.075 26.667,365.000 26.521,365.000 26.342 C 365.000 25.958,364.347 25.212,363.732 24.893 C 363.392 24.717,362.160 24.667,358.148 24.667 L 353.000 24.667 353.000 21.250 C 353.000 19.083,352.939 17.833,352.833 17.833 C 352.742 17.833,352.667 17.730,352.667 17.604 C 352.667 17.118,351.583 16.167,351.030 16.167 C 350.738 16.167,350.500 16.092,350.500 16.000 C 350.500 15.908,350.129 15.833,349.677 15.833 C 349.224 15.833,348.807 15.908,348.750 16.000 M167.247 24.838 C 167.192 24.927,166.857 25.000,166.502 25.000 C 166.147 25.000,165.748 25.109,165.615 25.242 C 165.482 25.375,165.338 25.449,165.296 25.407 C 165.119 25.231,162.438 26.196,162.247 26.504 C 162.192 26.594,162.034 26.667,161.896 26.667 C 161.501 26.667,159.000 29.240,159.000 29.647 C 159.000 29.841,158.925 30.000,158.833 30.000 C 158.742 30.000,158.667 30.193,158.667 30.429 C 158.667 30.664,158.554 30.970,158.417 31.107 C 158.236 31.288,158.167 31.727,158.167 32.688 C 158.167 33.553,158.107 33.983,157.996 33.914 C 157.881 33.843,157.830 35.657,157.838 39.483 C 157.845 42.879,157.913 45.196,158.008 45.255 C 158.095 45.309,158.167 45.876,158.167 46.515 C 158.167 47.394,158.228 47.700,158.417 47.773 C 158.571 47.832,158.667 48.086,158.667 48.434 C 158.667 48.746,158.742 49.000,158.833 49.000 C 158.925 49.000,159.000 49.109,159.000 49.241 C 159.000 49.374,159.188 49.685,159.417 49.932 C 159.646 50.180,159.833 50.446,159.833 50.524 C 159.833 50.726,160.465 51.333,160.675 51.333 C 160.771 51.333,161.023 51.521,161.235 51.750 C 161.448 51.979,161.738 52.167,161.880 52.167 C 162.022 52.167,162.165 52.245,162.197 52.341 C 162.229 52.436,162.421 52.527,162.623 52.543 C 162.826 52.558,163.028 52.667,163.074 52.785 C 163.119 52.903,163.346 53.000,163.578 53.000 C 163.810 53.000,164.000 53.075,164.000 53.167 C 164.000 53.258,164.256 53.333,164.569 53.333 C 164.883 53.333,165.166 53.415,165.200 53.516 C 165.233 53.616,165.630 53.732,166.082 53.774 C 166.533 53.816,166.991 53.924,167.100 54.013 C 167.370 54.238,187.009 54.224,187.234 53.999 C 187.325 53.908,187.601 53.833,187.846 53.833 C 188.566 53.833,189.335 53.638,189.237 53.480 C 189.188 53.399,189.451 53.333,189.823 53.333 C 190.196 53.333,190.500 53.258,190.500 53.167 C 190.500 53.075,190.688 53.000,190.917 53.000 C 191.146 53.000,191.333 52.903,191.333 52.785 C 191.333 52.667,191.490 52.559,191.681 52.545 C 191.872 52.530,192.162 52.364,192.325 52.176 C 192.489 51.988,192.782 51.833,192.978 51.833 C 193.183 51.833,193.333 51.727,193.333 51.583 C 193.333 51.446,193.393 51.333,193.466 51.333 C 193.750 51.333,195.000 49.970,195.000 49.660 C 195.000 49.481,195.075 49.333,195.167 49.333 C 195.258 49.333,195.333 49.221,195.333 49.083 C 195.333 48.946,195.446 48.833,195.583 48.833 C 195.721 48.833,195.833 48.688,195.833 48.510 C 195.833 48.332,195.908 48.140,196.000 48.083 C 196.092 48.027,196.167 47.535,196.167 46.990 C 196.167 46.441,196.241 46.000,196.333 46.000 C 196.442 46.000,196.500 43.694,196.500 39.417 C 196.500 35.139,196.442 32.833,196.333 32.833 C 196.242 32.833,196.167 32.421,196.167 31.917 C 196.167 31.412,196.092 31.000,196.000 31.000 C 195.908 31.000,195.833 30.824,195.833 30.609 C 195.833 30.394,195.646 30.001,195.417 29.734 C 195.188 29.468,195.000 29.158,195.000 29.045 C 195.000 28.765,193.214 27.000,192.931 27.000 C 192.805 27.000,192.529 26.821,192.318 26.601 C 192.107 26.382,191.837 26.240,191.718 26.285 C 191.600 26.331,191.457 26.248,191.400 26.101 C 191.344 25.954,191.123 25.833,190.909 25.833 C 190.695 25.833,190.473 25.758,190.417 25.667 C 190.360 25.575,190.163 25.500,189.979 25.500 C 189.795 25.500,189.481 25.410,189.281 25.301 C 189.080 25.191,188.582 25.075,188.174 25.043 C 187.765 25.010,187.344 24.911,187.237 24.823 C 186.973 24.604,167.382 24.619,167.247 24.838 M213.744 24.821 C 213.656 24.909,213.145 24.998,212.609 25.020 C 212.072 25.041,211.603 25.139,211.565 25.238 C 211.527 25.336,211.259 25.433,210.969 25.454 C 210.679 25.474,210.365 25.568,210.271 25.662 C 210.177 25.756,209.890 25.833,209.633 25.833 C 209.377 25.833,209.167 25.907,209.167 25.997 C 209.167 26.087,208.979 26.207,208.750 26.265 C 208.521 26.322,208.333 26.436,208.333 26.518 C 208.333 26.600,208.221 26.667,208.083 26.667 C 207.946 26.667,207.833 26.742,207.833 26.833 C 207.833 26.925,207.732 27.000,207.608 27.000 C 207.342 27.000,205.833 28.426,205.833 28.676 C 205.833 28.771,205.646 29.050,205.417 29.297 C 205.181 29.551,205.000 29.947,205.000 30.207 C 205.000 30.460,204.931 30.667,204.848 30.667 C 204.560 30.667,204.470 32.926,204.399 41.875 C 204.351 47.883,204.383 50.833,204.497 50.833 C 204.593 50.833,204.667 51.263,204.667 51.823 C 204.667 52.368,204.742 52.860,204.833 52.917 C 204.925 52.973,205.000 53.165,205.000 53.343 C 205.000 53.521,205.080 53.667,205.179 53.667 C 205.277 53.667,205.470 53.779,205.607 53.917 C 205.745 54.054,206.006 54.167,206.188 54.167 C 206.371 54.167,206.473 54.242,206.417 54.333 C 206.236 54.625,209.270 54.611,209.575 54.319 C 209.662 54.235,209.851 54.167,209.994 54.167 C 210.137 54.167,210.403 53.967,210.585 53.722 C 210.768 53.478,211.010 53.184,211.125 53.068 C 211.287 52.904,211.333 50.648,211.333 42.929 C 211.333 37.225,211.397 33.000,211.482 33.000 C 211.564 33.000,211.675 32.822,211.730 32.605 C 211.871 32.041,212.846 31.354,213.575 31.305 C 213.913 31.282,214.227 31.204,214.272 31.132 C 214.379 30.957,232.789 30.961,232.897 31.135 C 232.943 31.209,233.327 31.288,233.750 31.310 C 234.570 31.352,235.500 32.012,235.500 32.550 C 235.500 32.695,235.575 32.860,235.667 32.917 C 235.775 32.983,235.833 36.502,235.833 42.927 C 235.833 49.292,235.892 52.833,235.997 52.833 C 236.087 52.833,236.207 53.018,236.263 53.244 C 236.320 53.470,236.509 53.700,236.683 53.755 C 236.857 53.811,237.000 53.910,237.000 53.976 C 237.000 54.042,237.162 54.108,237.360 54.123 C 237.558 54.138,237.771 54.232,237.833 54.333 C 237.982 54.574,240.889 54.582,240.969 54.342 C 241.002 54.245,241.159 54.167,241.320 54.167 C 241.718 54.167,242.488 53.269,242.609 52.662 C 242.664 52.390,242.774 52.167,242.854 52.167 C 243.077 52.167,243.043 31.875,242.820 31.801 C 242.722 31.768,242.614 31.407,242.581 30.999 C 242.549 30.591,242.442 30.231,242.344 30.198 C 242.247 30.166,242.167 29.995,242.167 29.819 C 242.167 29.644,242.092 29.500,242.000 29.500 C 241.908 29.500,241.833 29.399,241.833 29.276 C 241.833 28.828,239.759 26.667,239.330 26.667 C 239.168 26.667,238.992 26.554,238.940 26.417 C 238.887 26.279,238.691 26.167,238.505 26.167 C 238.319 26.167,238.167 26.092,238.167 26.000 C 238.167 25.908,237.979 25.833,237.750 25.833 C 237.521 25.833,237.333 25.758,237.333 25.667 C 237.333 25.575,237.127 25.497,236.875 25.494 C 236.623 25.491,236.229 25.381,236.000 25.250 C 235.771 25.119,235.232 25.009,234.802 25.006 C 234.371 25.003,233.975 24.927,233.920 24.838 C 233.785 24.620,213.964 24.604,213.744 24.821 M260.333 24.836 C 260.507 24.947,260.271 24.996,259.555 24.997 C 258.506 25.000,257.950 25.117,258.068 25.309 C 258.105 25.368,257.823 25.438,257.442 25.465 C 257.061 25.491,256.725 25.585,256.694 25.673 C 256.664 25.761,256.458 25.833,256.236 25.833 C 256.015 25.833,255.833 25.908,255.833 26.000 C 255.833 26.092,255.681 26.167,255.495 26.167 C 255.309 26.167,255.113 26.279,255.060 26.417 C 255.008 26.554,254.835 26.667,254.678 26.667 C 254.520 26.667,254.215 26.854,254.000 27.083 C 253.785 27.313,253.536 27.500,253.447 27.500 C 253.238 27.500,252.427 28.350,252.286 28.716 C 252.226 28.872,252.100 29.000,252.005 29.000 C 251.911 29.000,251.833 29.188,251.833 29.417 C 251.833 29.646,251.758 29.833,251.667 29.833 C 251.575 29.833,251.500 29.978,251.500 30.155 C 251.500 30.332,251.386 30.590,251.248 30.728 C 250.872 31.105,250.878 52.797,251.255 52.942 C 251.390 52.993,251.500 53.135,251.500 53.256 C 251.500 53.521,252.365 54.167,252.720 54.167 C 252.859 54.167,252.998 54.245,253.031 54.342 C 253.066 54.447,253.688 54.517,254.583 54.517 C 255.479 54.517,256.101 54.447,256.136 54.342 C 256.168 54.245,256.322 54.167,256.477 54.167 C 256.812 54.167,257.833 53.132,257.833 52.792 C 257.833 52.662,257.890 52.499,257.958 52.431 C 258.135 52.254,258.123 52.919,258.146 42.111 L 258.167 32.223 258.583 32.000 C 258.813 31.877,259.000 31.692,259.000 31.588 C 259.000 31.482,259.312 31.383,259.708 31.362 C 260.098 31.342,260.604 31.251,260.833 31.160 C 261.309 30.971,279.081 31.050,280.387 31.247 C 281.233 31.375,282.071 32.002,282.202 32.603 C 282.239 32.776,282.359 32.898,282.468 32.875 C 282.620 32.843,282.667 35.206,282.667 42.917 C 282.667 49.528,282.724 53.000,282.833 53.000 C 282.925 53.000,283.000 53.112,283.000 53.250 C 283.000 53.609,283.609 54.167,284.000 54.167 C 284.183 54.167,284.333 54.245,284.333 54.342 C 284.333 54.454,284.930 54.506,286.000 54.488 C 286.917 54.472,287.667 54.401,287.667 54.331 C 287.667 54.260,287.854 54.156,288.083 54.098 C 288.313 54.041,288.500 53.920,288.500 53.830 C 288.500 53.740,288.585 53.667,288.690 53.667 C 288.988 53.667,289.322 53.128,289.328 52.639 C 289.331 52.394,289.411 52.168,289.506 52.137 C 289.644 52.091,289.781 33.185,289.650 32.250 C 289.638 32.158,289.636 32.027,289.647 31.958 C 289.658 31.890,289.592 31.833,289.500 31.833 C 289.408 31.833,289.333 31.496,289.333 31.083 C 289.333 30.671,289.258 30.333,289.167 30.333 C 289.075 30.333,289.000 30.154,289.000 29.934 C 289.000 29.715,288.887 29.492,288.750 29.440 C 288.612 29.387,288.500 29.226,288.500 29.081 C 288.500 28.748,286.750 27.000,286.417 27.000 C 286.279 27.000,286.167 26.925,286.167 26.833 C 286.167 26.742,286.035 26.667,285.873 26.667 C 285.712 26.667,285.378 26.479,285.131 26.250 C 284.883 26.021,284.495 25.833,284.267 25.833 C 284.039 25.833,283.813 25.768,283.764 25.689 C 283.714 25.609,283.372 25.496,283.004 25.437 C 282.635 25.378,282.333 25.268,282.333 25.193 C 282.333 25.118,281.904 25.040,281.380 25.018 C 280.856 24.997,280.340 24.908,280.235 24.821 C 280.118 24.724,276.162 24.665,270.063 24.670 C 263.678 24.675,260.173 24.735,260.333 24.836 M307.414 24.838 C 307.359 24.927,306.906 25.000,306.407 25.000 C 305.780 25.000,305.500 25.066,305.500 25.214 C 305.500 25.353,305.223 25.440,304.709 25.462 C 304.274 25.481,303.893 25.572,303.862 25.665 C 303.831 25.758,303.624 25.833,303.403 25.833 C 303.181 25.833,302.999 25.890,302.998 25.958 C 302.998 26.027,302.660 26.231,302.248 26.412 C 301.837 26.593,301.500 26.783,301.500 26.835 C 301.500 26.886,301.262 27.069,300.971 27.241 C 300.212 27.689,299.833 28.041,299.833 28.298 C 299.833 28.422,299.571 28.770,299.250 29.073 C 298.929 29.375,298.667 29.737,298.667 29.877 C 298.667 30.017,298.554 30.174,298.417 30.227 C 298.260 30.287,298.167 30.542,298.167 30.911 C 298.167 31.235,298.097 31.500,298.013 31.500 C 297.683 31.500,297.322 43.991,297.640 44.394 C 297.722 44.498,297.804 45.183,297.822 45.917 C 297.840 46.650,297.925 47.275,298.011 47.306 C 298.097 47.336,298.167 47.537,298.167 47.752 C 298.167 47.967,298.279 48.255,298.417 48.393 C 298.554 48.530,298.667 48.708,298.667 48.788 C 298.667 49.047,299.079 49.831,299.216 49.832 C 299.412 49.834,300.167 50.623,300.167 50.826 C 300.167 50.922,300.247 51.000,300.345 51.000 C 300.442 51.000,300.770 51.262,301.073 51.583 C 301.375 51.904,301.739 52.167,301.881 52.167 C 302.023 52.167,302.165 52.245,302.197 52.341 C 302.229 52.436,302.421 52.527,302.623 52.543 C 302.826 52.558,303.028 52.667,303.074 52.785 C 303.119 52.903,303.304 53.000,303.485 53.000 C 303.666 53.000,303.860 53.075,303.917 53.167 C 303.973 53.258,304.345 53.333,304.742 53.333 C 305.230 53.333,305.495 53.414,305.560 53.583 C 305.630 53.764,305.913 53.833,306.588 53.833 C 307.167 53.833,307.481 53.896,307.417 54.000 C 307.349 54.110,309.220 54.167,312.907 54.167 C 316.032 54.167,318.500 54.102,318.500 54.019 C 318.500 53.938,318.665 53.829,318.868 53.776 C 319.070 53.723,319.187 53.631,319.128 53.572 C 319.069 53.513,319.203 53.282,319.427 53.058 C 319.650 52.834,319.833 52.472,319.833 52.252 C 319.833 52.033,319.908 51.807,320.000 51.750 C 320.092 51.693,320.167 51.351,320.167 50.990 C 320.167 50.629,320.092 50.333,320.000 50.333 C 319.908 50.333,319.833 50.189,319.833 50.014 C 319.833 49.538,319.653 49.156,319.478 49.263 C 319.394 49.315,319.336 49.296,319.349 49.221 C 319.410 48.870,319.312 48.667,319.083 48.667 C 318.946 48.667,318.833 48.587,318.833 48.490 C 318.833 48.393,318.764 48.357,318.678 48.410 C 318.593 48.462,318.476 48.429,318.418 48.336 C 318.352 48.228,316.739 48.167,313.990 48.167 C 311.219 48.167,309.667 48.107,309.667 48.000 C 309.667 47.903,309.118 47.833,308.354 47.833 C 307.390 47.833,306.986 47.767,306.833 47.583 C 306.719 47.446,306.523 47.333,306.396 47.333 C 306.270 47.333,306.167 47.258,306.167 47.167 C 306.167 47.075,306.110 47.009,306.042 47.020 C 305.576 47.093,305.333 46.963,305.333 46.639 C 305.333 46.440,305.283 46.328,305.221 46.390 C 305.004 46.607,304.672 45.241,304.669 44.125 L 304.667 43.000 319.344 43.000 C 330.460 43.000,334.110 42.951,334.386 42.800 C 334.586 42.690,334.861 42.581,334.997 42.559 C 335.133 42.536,335.270 42.439,335.303 42.342 C 335.335 42.246,335.440 42.167,335.537 42.167 C 335.807 42.167,336.155 41.628,336.161 41.202 C 336.164 40.993,336.284 40.643,336.427 40.424 C 336.772 39.898,336.723 31.657,336.375 31.542 C 336.246 31.499,336.167 31.160,336.167 30.653 C 336.167 30.202,336.100 29.833,336.018 29.833 C 335.936 29.833,335.822 29.646,335.765 29.417 C 335.707 29.188,335.587 29.000,335.497 29.000 C 335.407 29.000,335.333 28.850,335.333 28.667 C 335.333 28.483,335.258 28.333,335.167 28.333 C 335.075 28.333,335.000 28.221,335.000 28.083 C 335.000 27.946,334.920 27.833,334.821 27.833 C 334.591 27.833,334.167 27.409,334.167 27.179 C 334.167 27.080,334.012 27.000,333.823 27.000 C 333.635 27.000,333.527 26.925,333.583 26.833 C 333.640 26.742,333.566 26.667,333.419 26.667 C 333.272 26.667,332.950 26.479,332.703 26.250 C 332.449 26.015,332.053 25.833,331.793 25.833 C 331.540 25.833,331.333 25.758,331.333 25.667 C 331.333 25.575,331.198 25.500,331.032 25.500 C 330.866 25.500,330.585 25.390,330.407 25.255 C 330.229 25.121,329.732 25.008,329.302 25.005 C 328.871 25.002,328.473 24.924,328.415 24.831 C 328.275 24.604,307.554 24.611,307.414 24.838 M185.917 31.167 C 185.973 31.258,186.341 31.333,186.734 31.333 C 187.174 31.333,187.580 31.446,187.790 31.625 C 187.977 31.785,188.345 32.087,188.607 32.296 L 189.083 32.676 189.083 39.366 C 189.083 44.569,189.037 46.071,188.875 46.125 C 188.760 46.163,188.667 46.288,188.667 46.402 C 188.667 46.517,188.479 46.711,188.250 46.833 C 188.021 46.956,187.833 47.119,187.833 47.195 C 187.833 47.271,187.698 47.333,187.532 47.333 C 187.366 47.333,187.085 47.443,186.907 47.578 C 186.712 47.725,186.202 47.825,185.625 47.828 C 185.098 47.831,184.667 47.905,184.667 47.993 C 184.667 48.093,181.982 48.157,177.574 48.163 C 173.672 48.169,170.391 48.190,170.282 48.212 C 170.173 48.233,170.102 48.156,170.125 48.042 C 170.156 47.889,169.815 47.833,168.854 47.833 C 167.890 47.833,167.486 47.767,167.333 47.583 C 167.219 47.446,166.985 47.333,166.813 47.333 C 166.641 47.333,166.500 47.258,166.500 47.167 C 166.500 47.075,166.346 47.000,166.157 47.000 C 165.968 47.000,165.854 46.935,165.903 46.856 C 165.952 46.776,165.844 46.577,165.663 46.413 C 165.482 46.249,165.333 45.935,165.333 45.714 C 165.333 45.494,165.262 45.358,165.175 45.412 C 165.075 45.473,165.012 43.292,165.004 39.588 C 164.996 35.657,165.050 33.667,165.163 33.667 C 165.257 33.667,165.333 33.442,165.333 33.167 C 165.333 32.281,166.605 31.378,167.949 31.308 C 168.354 31.287,168.724 31.209,168.770 31.135 C 168.895 30.933,185.791 30.964,185.917 31.167 M327.167 31.167 C 327.167 31.258,327.504 31.333,327.917 31.333 C 328.329 31.333,328.667 31.398,328.667 31.477 C 328.667 31.556,328.843 31.800,329.059 32.019 C 329.426 32.390,329.454 32.558,329.486 34.542 L 329.521 36.667 317.105 36.667 L 304.689 36.667 304.636 34.984 C 304.607 34.058,304.651 33.259,304.734 33.208 C 304.819 33.156,304.826 33.211,304.750 33.333 C 304.661 33.478,304.680 33.511,304.808 33.433 C 304.913 33.367,305.000 33.089,305.000 32.814 C 305.000 32.539,305.067 32.355,305.149 32.406 C 305.231 32.457,305.343 32.382,305.397 32.241 C 305.451 32.100,305.722 31.905,305.998 31.809 C 306.274 31.713,306.500 31.566,306.500 31.484 C 306.500 31.401,306.871 31.333,307.323 31.333 C 307.776 31.333,308.193 31.258,308.250 31.167 C 308.317 31.059,311.668 31.000,317.760 31.000 C 323.920 31.000,327.167 31.058,327.167 31.167 M229.488 69.208 C 229.455 69.757,229.308 70.246,229.145 70.347 C 229.040 70.411,228.990 70.816,229.024 71.312 C 229.082 72.144,229.071 72.167,228.634 72.167 C 228.375 72.167,228.087 72.307,227.953 72.499 C 227.825 72.682,227.671 72.782,227.610 72.721 C 227.550 72.661,227.500 72.849,227.500 73.139 C 227.500 73.429,227.575 73.667,227.667 73.667 C 227.758 73.667,227.833 73.779,227.833 73.917 C 227.833 74.072,227.991 74.167,228.250 74.167 C 228.479 74.167,228.667 74.254,228.667 74.361 C 228.667 74.468,228.713 74.509,228.770 74.452 C 228.827 74.396,228.977 74.453,229.103 74.579 C 229.370 74.846,229.411 75.068,229.167 74.917 C 229.058 74.849,229.000 75.998,229.000 78.240 C 229.000 80.125,229.065 81.667,229.145 81.667 C 229.225 81.667,229.339 81.967,229.397 82.333 L 229.504 83.000 230.601 83.000 C 231.558 83.000,231.709 82.957,231.785 82.667 C 231.833 82.483,231.936 82.333,232.013 82.333 C 232.091 82.333,232.154 80.599,232.154 78.479 C 232.153 76.359,232.177 74.601,232.206 74.572 C 232.235 74.542,232.951 74.504,233.796 74.487 C 234.642 74.470,235.333 74.391,235.333 74.311 C 235.333 74.232,235.525 74.167,235.758 74.167 C 236.170 74.167,236.182 74.138,236.133 73.208 L 236.083 72.250 234.106 72.167 L 232.129 72.083 232.129 70.924 C 232.130 69.258,231.920 69.000,230.564 69.000 C 229.831 69.000,229.496 69.065,229.488 69.208 M266.667 69.250 C 266.667 69.387,266.554 69.500,266.417 69.500 C 266.215 69.500,266.167 69.759,266.167 70.833 L 266.167 72.167 261.875 72.179 C 259.515 72.186,257.396 72.225,257.167 72.266 C 256.027 72.469,254.680 73.389,254.670 73.970 C 254.668 74.091,254.554 74.303,254.417 74.440 C 254.213 74.645,254.167 75.255,254.167 77.767 C 254.167 80.348,254.207 80.859,254.417 80.940 C 254.554 80.992,254.667 81.178,254.667 81.351 C 254.667 81.525,254.742 81.667,254.833 81.667 C 254.925 81.667,255.000 81.779,255.000 81.917 C 255.000 82.058,255.149 82.167,255.345 82.167 C 255.535 82.167,255.799 82.275,255.931 82.407 C 256.063 82.539,256.315 82.619,256.491 82.585 C 256.668 82.551,256.901 82.631,257.010 82.762 C 257.563 83.428,266.658 82.999,266.972 82.292 C 267.003 82.223,267.153 82.164,267.306 82.161 C 267.646 82.155,268.167 81.777,268.167 81.537 C 268.167 81.440,268.243 81.336,268.337 81.304 C 268.557 81.231,268.838 79.500,268.629 79.500 C 268.538 79.500,268.486 77.454,268.501 74.458 C 268.516 71.685,268.521 69.323,268.514 69.208 C 268.492 68.882,266.667 68.923,266.667 69.250 M279.833 69.383 C 279.833 69.594,279.762 69.838,279.675 69.925 C 279.582 70.019,279.570 70.470,279.646 71.034 C 279.717 71.556,279.713 71.946,279.638 71.899 C 279.562 71.852,279.500 71.893,279.500 71.990 C 279.500 72.087,279.254 72.167,278.954 72.167 C 278.613 72.167,278.300 72.293,278.120 72.502 C 277.811 72.864,277.728 73.667,278.000 73.667 C 278.092 73.667,278.167 73.779,278.167 73.917 C 278.167 74.072,278.324 74.167,278.583 74.167 C 278.813 74.167,279.000 74.242,279.000 74.333 C 279.000 74.425,279.111 74.500,279.247 74.500 C 279.637 74.500,279.690 75.056,279.635 78.536 C 279.607 80.332,279.631 81.772,279.690 81.736 C 279.748 81.700,279.792 81.763,279.788 81.877 C 279.748 82.991,279.757 83.000,280.911 83.000 C 282.535 83.000,282.455 83.245,282.481 78.208 L 282.500 74.500 284.002 74.500 C 284.829 74.500,285.635 74.430,285.794 74.345 C 285.953 74.261,286.215 74.150,286.375 74.101 C 286.588 74.035,286.667 73.834,286.667 73.350 C 286.667 72.290,286.422 72.167,284.321 72.167 L 282.500 72.167 282.479 71.083 C 282.455 69.807,282.462 69.854,282.197 69.375 C 281.876 68.797,279.833 68.805,279.833 69.383 M288.458 69.316 C 288.113 69.666,288.003 82.049,288.339 82.678 C 288.479 82.939,288.693 83.000,289.469 83.000 C 291.017 83.000,291.000 83.051,291.000 78.399 L 291.000 74.469 294.909 74.526 C 297.748 74.568,298.874 74.640,299.025 74.792 C 299.140 74.906,299.360 75.000,299.514 75.000 C 299.931 75.000,300.026 75.676,300.144 79.500 L 300.250 82.917 301.208 82.967 C 301.955 83.006,302.167 82.964,302.167 82.776 C 302.167 82.644,302.277 82.493,302.412 82.441 C 303.106 82.175,302.656 74.326,301.917 73.798 C 301.825 73.732,301.750 73.586,301.750 73.473 C 301.750 73.359,301.487 73.139,301.167 72.983 C 299.454 72.150,299.577 72.167,295.183 72.167 L 291.000 72.167 291.000 70.870 C 291.000 69.778,290.947 69.529,290.665 69.287 C 290.209 68.896,288.854 68.914,288.458 69.316 M304.867 70.387 C 304.616 71.081,304.592 71.874,304.833 71.500 C 304.959 71.305,304.995 71.351,304.997 71.708 L 305.000 72.167 306.296 72.167 C 307.753 72.167,308.190 71.899,308.132 71.042 C 308.064 70.042,307.756 69.833,306.348 69.833 L 305.067 69.833 304.867 70.387 M131.577 72.343 C 131.522 72.432,131.407 72.462,131.322 72.410 C 131.236 72.357,131.167 72.393,131.167 72.490 C 131.167 72.587,131.007 72.667,130.811 72.667 C 130.432 72.667,129.274 73.769,129.414 73.996 C 129.460 74.071,129.386 74.175,129.249 74.227 C 128.888 74.366,128.876 80.747,129.237 80.950 C 129.367 81.023,129.498 81.194,129.528 81.329 C 129.591 81.610,130.218 82.167,130.471 82.167 C 130.563 82.167,130.664 82.243,130.696 82.337 C 130.727 82.431,130.977 82.548,131.251 82.597 C 131.526 82.646,131.775 82.757,131.806 82.843 C 131.839 82.936,133.843 83.000,136.746 83.000 C 142.187 83.000,141.833 83.083,141.833 81.808 C 141.833 80.666,141.885 80.678,136.916 80.661 C 134.468 80.653,132.508 80.603,132.560 80.551 C 132.613 80.499,132.470 80.310,132.244 80.132 C 131.842 79.816,131.833 79.762,131.833 77.414 C 131.833 74.287,131.392 74.550,136.712 74.511 C 139.020 74.495,140.948 74.419,140.996 74.343 C 141.044 74.267,141.233 74.177,141.417 74.142 C 141.702 74.088,141.750 73.947,141.750 73.164 L 141.750 72.250 136.714 72.215 C 133.583 72.194,131.640 72.242,131.577 72.343 M147.232 72.417 C 147.059 72.549,146.751 72.658,146.547 72.661 C 146.146 72.667,145.209 73.494,144.875 74.137 C 144.614 74.640,144.575 80.833,144.833 80.833 C 144.925 80.833,145.000 80.946,145.000 81.083 C 145.000 81.221,145.113 81.333,145.250 81.333 C 145.387 81.333,145.481 81.392,145.458 81.465 C 145.374 81.732,146.327 82.494,146.863 82.588 C 147.167 82.641,147.442 82.755,147.472 82.842 C 147.544 83.045,156.167 83.055,156.167 82.852 C 156.167 82.770,156.429 82.655,156.750 82.594 C 157.071 82.534,157.333 82.426,157.333 82.354 C 157.333 82.282,157.521 82.123,157.750 82.000 C 157.979 81.877,158.167 81.685,158.167 81.573 C 158.167 81.461,158.262 81.332,158.379 81.288 C 158.495 81.243,158.608 80.999,158.629 80.745 C 158.650 80.491,158.745 80.189,158.841 80.074 C 159.054 79.817,159.032 75.373,158.816 75.240 C 158.734 75.189,158.667 74.938,158.667 74.682 C 158.667 74.427,158.535 74.055,158.375 73.857 C 158.215 73.659,157.933 73.311,157.750 73.084 C 157.546 72.831,157.243 72.669,156.970 72.668 C 156.725 72.667,156.414 72.557,156.280 72.423 C 155.923 72.066,147.703 72.061,147.232 72.417 M163.625 72.624 C 163.098 72.859,162.667 73.152,162.667 73.276 C 162.667 73.399,162.581 73.500,162.477 73.500 C 161.914 73.500,161.844 74.036,161.839 78.385 C 161.836 80.876,161.896 82.648,161.983 82.594 C 162.065 82.543,162.176 82.618,162.230 82.759 C 162.308 82.960,162.553 83.005,163.366 82.966 C 164.677 82.904,164.629 83.067,164.650 78.618 C 164.672 74.106,164.224 74.533,168.942 74.523 C 173.787 74.513,173.331 74.077,173.379 78.759 C 173.407 81.488,173.468 82.406,173.625 82.458 C 173.740 82.497,173.833 82.634,173.833 82.764 C 173.833 82.941,174.082 83.000,174.833 83.000 C 175.722 83.000,175.833 82.963,175.833 82.667 C 175.833 82.483,175.908 82.333,176.000 82.333 C 176.215 82.333,176.227 74.962,176.013 74.742 C 175.928 74.655,175.834 74.358,175.804 74.083 C 175.773 73.793,175.663 73.601,175.542 73.625 C 175.427 73.648,175.333 73.529,175.333 73.361 C 175.333 73.062,175.229 72.992,173.953 72.440 C 172.774 71.929,164.868 72.071,163.625 72.624 M181.439 72.415 C 181.177 72.553,180.820 72.667,180.648 72.667 C 180.475 72.667,180.333 72.742,180.333 72.833 C 180.333 72.925,180.221 73.000,180.083 73.000 C 179.946 73.000,179.833 73.085,179.833 73.189 C 179.833 73.293,179.665 73.524,179.458 73.703 C 179.090 74.021,179.082 74.107,179.034 78.279 C 178.976 83.203,178.916 83.000,180.431 83.000 C 181.857 83.000,181.833 83.072,181.833 78.749 C 181.833 75.596,181.868 75.108,182.113 74.863 C 182.538 74.437,189.488 74.376,190.192 74.791 L 190.667 75.072 190.667 78.586 C 190.667 82.867,190.704 82.997,191.939 82.999 C 193.306 83.001,193.333 82.911,193.333 78.423 C 193.333 76.030,193.273 74.667,193.167 74.667 C 193.075 74.667,193.000 74.509,193.000 74.317 C 193.000 73.836,192.515 73.058,192.097 72.869 C 190.571 72.180,190.638 72.188,186.225 72.176 C 182.687 72.165,181.831 72.208,181.439 72.415 M198.917 72.291 C 198.733 72.332,198.512 72.433,198.425 72.516 C 198.338 72.599,198.137 72.667,197.979 72.667 C 197.591 72.667,196.667 73.615,196.667 74.013 C 196.667 74.189,196.573 74.315,196.458 74.292 C 196.299 74.260,196.238 74.998,196.200 77.442 L 196.150 80.635 196.575 81.060 C 196.809 81.294,197.000 81.545,197.000 81.617 C 197.001 81.809,198.403 82.667,198.716 82.667 C 198.861 82.667,199.027 82.742,199.083 82.833 C 199.144 82.932,200.184 83.000,201.641 83.000 L 204.095 83.000 204.386 82.507 C 205.162 81.193,204.458 80.679,201.875 80.672 C 200.731 80.669,199.833 80.599,199.833 80.512 C 199.833 80.426,199.665 80.333,199.458 80.303 C 199.157 80.260,199.073 80.127,199.032 79.625 L 198.980 79.000 204.453 79.000 C 211.102 79.000,210.567 79.229,210.615 76.366 C 210.640 74.859,210.599 74.463,210.407 74.390 C 210.275 74.339,210.167 74.150,210.167 73.969 C 210.167 73.571,209.299 72.667,208.918 72.667 C 208.766 72.667,208.528 72.552,208.388 72.412 C 208.142 72.166,199.936 72.061,198.917 72.291 M215.833 72.417 C 215.719 72.554,215.450 72.667,215.235 72.667 C 214.758 72.667,213.833 73.534,213.833 73.980 C 213.833 74.159,213.740 74.337,213.625 74.375 C 213.233 74.506,213.274 80.282,213.672 80.926 C 213.850 81.214,213.953 81.491,213.902 81.543 C 213.850 81.594,213.983 81.691,214.196 81.759 C 214.409 81.826,214.708 82.024,214.860 82.199 C 215.012 82.374,215.350 82.555,215.610 82.602 C 215.870 82.648,216.155 82.757,216.242 82.843 C 216.333 82.934,218.458 83.000,221.283 83.000 L 226.167 83.000 226.167 82.060 C 226.167 80.643,226.289 80.678,221.292 80.672 C 218.894 80.669,217.000 80.601,217.000 80.518 C 217.000 80.436,216.813 80.322,216.583 80.265 L 216.167 80.160 216.167 77.641 C 216.167 74.264,215.721 74.549,221.043 74.512 C 223.515 74.495,225.273 74.418,225.306 74.325 C 225.336 74.238,225.542 74.167,225.764 74.167 C 226.219 74.167,226.376 72.776,225.967 72.367 C 225.638 72.038,216.108 72.085,215.833 72.417 M239.489 72.420 C 239.266 72.540,238.858 72.724,238.583 72.829 C 238.308 72.933,237.840 73.349,237.542 73.752 L 237.000 74.486 237.000 77.623 L 237.000 80.760 237.583 81.310 C 237.904 81.613,238.167 81.929,238.167 82.014 C 238.167 82.098,238.279 82.167,238.417 82.167 C 238.554 82.167,238.667 82.246,238.667 82.343 C 238.667 82.440,238.736 82.477,238.822 82.424 C 238.907 82.371,239.024 82.404,239.082 82.497 C 239.139 82.590,239.369 82.667,239.593 82.667 C 239.817 82.667,240.000 82.742,240.000 82.833 C 240.000 83.163,244.846 83.044,245.101 82.708 C 245.420 82.289,245.406 81.000,245.083 81.000 C 244.946 81.000,244.833 80.925,244.833 80.833 C 244.833 80.732,244.061 80.662,242.875 80.654 C 240.563 80.640,239.951 80.412,239.864 79.529 L 239.812 79.000 245.286 79.000 C 251.927 79.000,251.333 79.271,251.333 76.238 C 251.333 74.887,251.274 74.183,251.167 74.250 C 251.072 74.308,251.000 74.168,251.000 73.927 C 251.000 73.659,250.907 73.500,250.750 73.500 C 250.612 73.500,250.500 73.420,250.500 73.321 C 250.500 73.059,250.163 72.775,249.459 72.445 C 248.650 72.065,240.186 72.044,239.489 72.420 M312.708 72.286 C 312.502 72.325,312.333 72.426,312.333 72.512 C 312.333 72.597,312.178 72.667,311.987 72.667 C 311.591 72.667,310.667 73.520,310.667 73.886 C 310.667 74.021,310.554 74.174,310.417 74.227 C 310.204 74.309,310.167 74.928,310.167 78.386 C 310.167 83.193,310.114 83.049,311.856 82.967 L 312.917 82.917 312.961 79.017 C 313.019 74.043,312.534 74.533,317.408 74.523 C 322.287 74.514,321.833 74.091,321.833 78.650 C 321.833 82.885,321.871 83.001,323.228 82.997 C 324.657 82.993,324.583 83.244,324.583 78.359 L 324.583 74.040 323.854 73.353 C 323.453 72.976,322.991 72.667,322.827 72.667 C 322.662 72.667,322.497 72.573,322.458 72.458 C 322.391 72.255,313.687 72.101,312.708 72.286 M330.049 72.429 C 329.884 72.554,329.554 72.658,329.315 72.661 C 329.050 72.665,328.758 72.829,328.567 73.083 C 328.395 73.313,328.160 73.500,328.044 73.500 C 327.928 73.500,327.833 73.635,327.833 73.800 C 327.833 73.965,327.740 74.194,327.625 74.308 C 327.390 74.543,327.227 78.877,327.408 80.083 C 327.554 81.056,328.784 82.334,329.710 82.474 C 329.780 82.485,330.057 82.607,330.327 82.747 C 330.726 82.953,331.574 83.000,334.915 83.000 C 338.186 83.000,338.974 83.042,338.818 83.208 C 338.692 83.343,337.973 83.437,336.784 83.474 C 335.773 83.506,334.826 83.594,334.681 83.670 C 334.536 83.747,334.285 83.850,334.125 83.899 C 333.723 84.024,333.728 85.230,334.132 85.743 C 334.452 86.151,338.190 86.367,338.422 85.992 C 338.476 85.905,338.780 85.833,339.098 85.833 C 339.459 85.833,339.713 85.739,339.773 85.583 C 339.826 85.446,340.011 85.333,340.184 85.333 C 340.358 85.333,340.500 85.258,340.500 85.167 C 340.500 85.075,340.600 85.000,340.722 85.000 C 340.844 85.000,341.050 84.794,341.180 84.542 C 341.310 84.290,341.510 84.023,341.625 83.950 C 341.963 83.734,341.923 74.357,341.583 74.227 C 341.446 74.174,341.333 74.021,341.333 73.886 C 341.333 73.473,340.397 72.667,339.918 72.667 C 339.675 72.667,339.360 72.551,339.218 72.409 C 338.861 72.051,330.522 72.070,330.049 72.429 M346.625 72.287 C 346.465 72.326,346.333 72.427,346.333 72.512 C 346.333 72.597,346.178 72.667,345.988 72.667 C 344.924 72.667,343.942 76.733,344.917 77.106 C 345.054 77.159,345.167 77.311,345.167 77.444 C 345.167 77.577,345.233 77.645,345.314 77.595 C 345.396 77.545,345.501 77.653,345.549 77.835 C 345.611 78.073,345.777 78.167,346.137 78.167 C 346.413 78.167,346.668 78.253,346.703 78.359 C 346.742 78.477,347.213 78.557,347.925 78.567 C 348.562 78.576,349.122 78.634,349.168 78.695 C 349.215 78.757,350.378 78.827,351.752 78.852 C 355.150 78.912,355.000 78.866,355.000 79.844 L 355.000 80.648 349.977 80.662 C 344.655 80.676,344.667 80.675,344.667 81.177 C 344.667 81.354,344.610 81.500,344.542 81.500 C 344.473 81.501,344.401 81.726,344.382 82.000 C 344.362 82.275,344.419 82.500,344.507 82.500 C 344.595 82.500,344.667 82.612,344.667 82.750 C 344.667 83.084,355.024 83.128,355.784 82.797 C 356.476 82.496,357.333 81.824,357.333 81.581 C 357.333 81.465,357.439 81.329,357.567 81.279 C 358.521 80.913,357.496 77.000,356.446 77.000 C 356.293 77.000,356.167 76.925,356.167 76.833 C 356.167 76.742,355.936 76.667,355.655 76.667 C 355.373 76.667,355.040 76.564,354.914 76.438 C 354.738 76.261,353.920 76.202,351.327 76.179 C 347.525 76.145,347.293 76.086,347.369 75.167 L 347.417 74.583 349.333 74.529 C 350.387 74.499,351.321 74.405,351.408 74.320 C 351.495 74.236,351.702 74.167,351.867 74.167 C 352.032 74.167,352.167 74.054,352.167 73.917 C 352.167 73.779,352.242 73.667,352.333 73.667 C 352.425 73.667,352.500 73.512,352.500 73.323 C 352.500 73.135,352.430 73.024,352.345 73.076 C 352.259 73.129,352.165 72.965,352.136 72.711 L 352.083 72.250 349.500 72.233 C 348.079 72.224,346.785 72.249,346.625 72.287 M305.432 73.083 C 305.374 73.313,305.253 73.500,305.163 73.500 C 304.838 73.500,304.956 81.732,305.292 82.406 C 305.646 83.118,307.318 83.318,307.655 82.689 C 307.992 82.059,307.868 73.425,307.517 73.019 C 307.034 72.463,305.576 72.508,305.432 73.083 M155.887 74.863 C 156.124 75.100,156.167 75.524,156.167 77.623 L 156.167 80.103 155.527 80.385 C 155.001 80.617,154.336 80.667,151.762 80.667 L 148.637 80.667 147.989 80.208 L 147.340 79.750 147.337 77.623 L 147.333 75.495 147.875 75.011 L 148.417 74.527 152.012 74.555 C 155.131 74.580,155.644 74.620,155.887 74.863 M207.817 74.819 C 208.078 75.046,208.167 75.318,208.167 75.895 L 208.167 76.667 203.583 76.667 L 199.000 76.667 199.000 75.905 C 199.000 74.547,199.005 74.545,203.692 74.529 C 207.115 74.517,207.500 74.544,207.817 74.819 M248.650 74.819 C 248.911 75.046,249.000 75.318,249.000 75.895 L 249.000 76.667 244.417 76.667 L 239.833 76.667 239.833 76.117 C 239.833 75.442,240.164 74.698,240.500 74.615 C 241.516 74.366,248.324 74.536,248.650 74.819 M266.167 77.320 C 266.167 79.920,266.141 80.167,265.875 80.168 C 265.715 80.168,265.369 80.281,265.106 80.418 C 264.233 80.873,258.260 80.773,257.553 80.292 L 257.002 79.917 257.001 77.637 L 257.000 75.357 257.509 74.959 C 258.009 74.568,258.081 74.561,262.092 74.518 L 266.167 74.474 266.167 77.320 M338.720 74.863 C 338.874 75.017,339.000 75.256,339.000 75.395 C 339.000 75.534,339.075 75.693,339.167 75.750 C 339.265 75.811,339.333 76.835,339.333 78.260 L 339.333 80.667 335.280 80.667 L 331.227 80.667 330.697 80.193 L 330.167 79.720 330.167 77.590 L 330.167 75.461 330.708 74.987 L 331.250 74.514 334.845 74.549 C 337.959 74.579,338.478 74.621,338.720 74.863 " stroke="none" fill="#446fac" fill-rule="evenodd"></path><path id="path11" d="M285.333 26.417 C 285.447 26.554,285.616 26.667,285.707 26.667 C 285.800 26.667,285.782 26.556,285.667 26.417 C 285.553 26.279,285.384 26.167,285.293 26.167 C 285.200 26.167,285.218 26.277,285.333 26.417 M204.207 42.115 C 204.169 50.521,204.222 51.751,204.593 51.151 C 204.657 51.047,204.625 50.911,204.523 50.847 C 204.390 50.765,204.323 48.194,204.292 41.908 L 204.247 33.083 204.207 42.115 M189.075 39.250 C 189.075 42.275,189.097 43.536,189.125 42.052 C 189.152 40.568,189.152 38.093,189.125 36.552 C 189.097 35.011,189.075 36.225,189.075 39.250 M268.573 74.917 C 268.573 77.483,268.596 78.510,268.625 77.198 C 268.653 75.886,268.653 73.786,268.625 72.532 C 268.596 71.277,268.573 72.350,268.573 74.917 M279.513 71.115 C 279.506 71.499,279.559 71.850,279.632 71.895 C 279.704 71.940,279.736 71.701,279.703 71.363 C 279.612 70.441,279.528 70.331,279.513 71.115 M261.134 74.624 C 262.078 74.654,263.578 74.654,264.467 74.624 C 265.356 74.594,264.583 74.570,262.750 74.570 C 260.917 74.570,260.189 74.595,261.134 74.624 M279.570 78.167 C 279.570 80.046,279.595 80.815,279.624 79.875 C 279.654 78.935,279.654 77.398,279.624 76.458 C 279.595 75.519,279.570 76.287,279.570 78.167 M300.067 79.000 C 300.067 80.421,300.093 81.002,300.124 80.292 C 300.155 79.581,300.155 78.419,300.124 77.708 C 300.093 76.998,300.067 77.579,300.067 79.000 " stroke="none" fill="#5580ff" fill-rule="evenodd"></path><path id="path12" d="M268.740 74.917 C 268.740 77.483,268.763 78.510,268.791 77.198 C 268.820 75.886,268.819 73.786,268.791 72.532 C 268.763 71.277,268.740 72.350,268.740 74.917 " stroke="none" fill="#55aaaa" fill-rule="evenodd"></path><path id="path13" d="M56.125 54.291 C 57.248 54.320,59.085 54.320,60.208 54.291 C 61.331 54.262,60.413 54.239,58.167 54.239 C 55.921 54.239,55.002 54.262,56.125 54.291 M175.218 54.291 C 176.484 54.320,178.509 54.320,179.718 54.291 C 180.927 54.263,179.892 54.240,177.417 54.240 C 174.942 54.240,173.952 54.263,175.218 54.291 M314.047 54.289 C 314.485 54.324,315.160 54.323,315.547 54.288 C 315.934 54.254,315.575 54.225,314.750 54.226 C 313.925 54.226,313.609 54.255,314.047 54.289 " stroke="none" fill="#aaaaff" fill-rule="evenodd"></path><path id="path14" d="" stroke="none" fill="#80bfff" fill-rule="evenodd"></path><path id="path15" d="" stroke="none" fill="#00ff00" fill-rule="evenodd"></path><path id="path16" d="M282.550 71.000 C 282.550 71.504,282.581 71.710,282.619 71.458 C 282.658 71.206,282.658 70.794,282.619 70.542 C 282.581 70.290,282.550 70.496,282.550 71.000 M282.571 78.417 C 282.571 80.342,282.595 81.106,282.624 80.116 C 282.654 79.126,282.654 77.551,282.624 76.616 C 282.595 75.681,282.570 76.492,282.571 78.417 " stroke="none" fill="#00ffff" fill-rule="evenodd"></path><path id="path17" d="" stroke="none" fill="#80ffff" fill-rule="evenodd"></path></g></svg>