<?xml version="1.0" standalone="no"?>
<!DOCTYPE svg PUBLIC "-//W3C//DTD SVG 20010904//EN"
 "http://www.w3.org/TR/2001/REC-SVG-20010904/DTD/svg10.dtd">
<svg version="1.0" xmlns="http://www.w3.org/2000/svg"
 width="1000.000000pt" height="260.000000pt" viewBox="0 0 1000.000000 260.000000"
 preserveAspectRatio="xMidYMid meet">
<metadata>
Created by potrace 1.15, written by Peter Selinger 2001-2017
</metadata>
<g transform="translate(0.000000,260.000000) scale(0.100000,-0.100000)"
fill="#000000" stroke="none">
<path d="M1010 2191 c-49 -14 -51 -29 -48 -411 l3 -355 24 -42 c28 -48 79 -88
143 -110 102 -36 488 -40 615 -7 97 25 155 74 182 153 15 45 14 329 -1 389
-15 59 -76 122 -144 147 -43 17 -87 19 -351 23 l-303 3 0 87 c0 97 -4 106 -43
121 -31 12 -40 12 -77 2z m686 -372 c70 -18 74 -30 74 -210 l0 -157 -30 -25
c-39 -34 -112 -41 -344 -35 -191 5 -233 14 -256 57 -6 12 -10 96 -10 200 l0
181 261 0 c160 0 277 -4 305 -11z"/>
<path d="M3040 2189 c-13 -5 -28 -15 -32 -22 -4 -7 -8 -209 -8 -449 0 -425 1
-439 20 -458 27 -27 93 -27 120 0 18 18 20 33 20 139 l0 119 213 -108 c116
-59 237 -122 267 -139 30 -17 68 -31 83 -31 57 0 99 79 65 122 -7 9 -76 49
-153 88 -77 40 -160 83 -185 96 -25 13 -72 35 -105 49 l-59 26 184 90 c102 50
209 100 239 111 66 25 91 49 91 88 0 38 -39 80 -74 80 -13 0 -102 -39 -198
-86 -95 -48 -217 -106 -270 -129 l-98 -43 0 212 c0 154 -3 217 -12 228 -16 21
-76 30 -108 17z"/>
<path d="M8700 2191 c-36 -10 -50 -46 -50 -133 l0 -78 -39 0 c-47 0 -66 -19
-66 -70 0 -50 27 -80 71 -80 l33 0 3 -276 3 -276 24 -19 c36 -29 94 -25 120 7
20 26 21 39 21 295 l0 269 130 0 c126 0 132 1 155 25 14 13 25 34 25 45 0 24
-18 61 -34 72 -6 4 -71 8 -143 8 l-133 0 0 84 c0 65 -4 88 -17 105 -20 23 -65
33 -103 22z"/>
<path d="M4140 1966 c-88 -25 -146 -70 -171 -131 -6 -16 -14 -96 -17 -176 -5
-162 8 -267 38 -309 24 -33 102 -76 165 -90 64 -14 486 -14 550 0 85 19 149
63 183 125 21 39 30 333 13 410 -15 67 -58 117 -129 152 l-57 28 -265 2 c-191
1 -278 -2 -310 -11z m563 -159 l27 -17 0 -174 c0 -199 0 -199 -90 -216 -68
-13 -351 -13 -421 0 -38 7 -61 18 -77 36 -23 26 -23 31 -20 185 3 175 6 184
69 199 19 5 135 8 259 7 198 -2 229 -4 253 -20z"/>
<path d="M5290 1965 c-71 -20 -128 -60 -154 -110 -19 -36 -21 -60 -24 -264 -4
-250 1 -304 29 -332 26 -26 92 -26 119 1 19 19 20 33 20 270 0 234 1 251 19
269 28 28 82 33 335 29 225 -3 228 -3 247 -27 18 -21 19 -42 19 -272 0 -242 1
-249 22 -269 28 -26 88 -27 119 -1 24 19 24 20 27 270 2 159 -1 265 -8 291
-15 55 -59 103 -122 131 -51 23 -63 24 -323 26 -213 2 -282 -1 -325 -12z"/>
<path d="M6464 1969 c-61 -14 -144 -69 -166 -109 -16 -31 -18 -61 -18 -305 0
-148 4 -275 8 -281 26 -40 102 -45 137 -9 l25 24 0 255 c0 254 0 255 23 268
25 14 437 25 515 13 82 -12 82 -11 82 -295 0 -237 1 -251 20 -270 26 -26 89
-27 121 -1 l24 19 0 274 c0 309 -1 315 -80 370 -72 49 -133 58 -405 57 -135
-1 -263 -5 -286 -10z"/>
<path d="M7631 1964 c-108 -29 -163 -86 -182 -189 -14 -73 -7 -328 10 -370 27
-67 102 -122 196 -144 55 -13 268 -18 302 -7 31 10 48 67 31 103 l-13 28 -142
6 c-77 3 -154 11 -171 18 -33 14 -52 47 -52 91 l0 30 375 0 376 0 24 25 c23
23 25 31 25 132 0 166 -23 217 -117 264 -47 23 -56 24 -328 26 -223 2 -291 -1
-334 -13z m592 -153 c12 -10 17 -30 17 -72 l0 -59 -315 0 -315 0 0 44 c0 53
23 84 70 96 19 5 146 8 281 7 192 -2 250 -5 262 -16z"/>
<path d="M2200 1713 c-41 -15 -55 -87 -22 -116 16 -15 51 -17 288 -17 148 0
274 4 280 8 21 13 34 52 28 77 -13 53 -27 55 -304 54 -140 0 -262 -3 -270 -6z"/>
<path d="M5734 832 c-4 -28 -12 -42 -25 -45 -25 -7 -24 -24 1 -37 18 -10 20
-21 20 -103 0 -103 7 -120 41 -115 23 3 24 6 27 106 l3 102 34 0 c46 0 65 9
65 31 0 16 -8 19 -49 19 l-50 0 -3 38 c-3 32 -7 37 -30 40 -25 3 -28 0 -34
-36z"/>
<path d="M6667 863 c-4 -3 -7 -21 -7 -40 l0 -33 -125 0 c-120 0 -127 -1 -150
-25 -22 -21 -25 -33 -25 -99 0 -41 3 -82 6 -91 13 -33 59 -45 171 -45 90 0
113 3 141 20 l32 20 0 150 c0 139 -1 150 -18 150 -10 0 -22 -3 -25 -7z m-7
-197 l0 -73 -31 -7 c-50 -10 -168 -7 -190 4 -15 9 -19 22 -19 68 0 32 5 63 12
70 8 8 49 12 120 12 l108 0 0 -74z"/>
<path d="M6996 855 c-3 -9 -6 -27 -6 -40 0 -14 -7 -25 -20 -28 -11 -3 -20 -10
-20 -16 0 -6 9 -15 20 -21 18 -10 20 -21 20 -103 0 -103 7 -120 41 -115 23 3
24 6 27 106 l3 102 35 0 c45 0 75 16 68 35 -4 10 -21 15 -54 15 l-49 0 -3 38
c-3 32 -7 37 -29 40 -17 2 -29 -3 -33 -13z"/>
<path d="M7210 701 l0 -171 30 0 30 0 0 105 0 105 99 0 c55 0 106 -3 115 -6
13 -5 16 -22 16 -83 0 -100 7 -123 34 -119 19 3 21 10 24 98 4 147 -9 160
-178 160 l-109 0 -3 38 c-3 32 -7 37 -30 40 l-28 3 0 -170z"/>
<path d="M3255 765 c-22 -21 -25 -33 -25 -100 0 -42 4 -85 10 -95 16 -29 66
-40 186 -40 l114 0 0 25 0 25 -108 0 c-138 0 -144 4 -140 90 l3 65 100 2 c126
4 145 8 145 33 0 19 -7 20 -130 20 -126 0 -132 -1 -155 -25z"/>
<path d="M3645 765 c-22 -22 -25 -32 -25 -104 0 -69 3 -83 22 -100 29 -27 68
-34 182 -29 120 4 137 17 144 107 5 75 -12 129 -45 142 -13 5 -76 9 -139 9
-109 0 -116 -1 -139 -25z m260 -105 l0 -75 -92 -3 c-122 -4 -133 2 -133 76 0
33 5 63 12 70 9 9 43 12 113 10 l100 -3 0 -75z"/>
<path d="M4076 769 c-25 -20 -26 -24 -26 -130 l0 -109 30 0 29 0 3 103 3 102
110 0 110 0 5 -100 c5 -99 5 -100 30 -100 l25 0 0 108 c0 146 -1 147 -170 147
-109 0 -125 -2 -149 -21z"/>
<path d="M4506 769 c-25 -20 -26 -24 -26 -130 l0 -109 30 0 29 0 3 103 3 102
110 0 110 0 5 -100 c5 -99 5 -100 30 -100 l25 0 0 108 c0 146 -1 147 -170 147
-109 0 -125 -2 -149 -21z"/>
<path d="M4935 765 c-22 -21 -25 -33 -25 -103 0 -71 2 -81 26 -103 21 -20 38
-24 100 -27 75 -4 76 -4 72 19 -2 19 -10 25 -38 27 -79 5 -100 12 -100 32 0
18 9 20 143 22 l142 3 3 39 c4 48 -3 80 -24 100 -12 13 -41 16 -145 16 -125 0
-131 -1 -154 -25z"/>
<path d="M5365 765 c-22 -22 -25 -33 -25 -104 0 -119 19 -131 196 -131 l114 0
0 25 0 25 -102 0 c-153 0 -149 -2 -146 84 l3 71 100 2 c126 4 145 8 145 33 0
19 -7 20 -130 20 -126 0 -132 -1 -155 -25z"/>
<path d="M5955 765 c-22 -21 -25 -33 -25 -103 0 -71 2 -81 26 -103 21 -20 38
-24 100 -27 75 -4 76 -4 72 19 -3 21 -10 25 -58 29 -61 6 -80 14 -80 35 0 12
28 15 143 17 l142 3 3 51 c2 39 -2 56 -18 77 -21 27 -22 27 -151 27 -125 0
-131 -1 -154 -25z"/>
<path d="M7786 769 c-25 -20 -26 -24 -26 -130 l0 -109 30 0 29 0 3 103 3 102
110 0 110 0 5 -100 5 -100 28 -3 27 -3 0 110 c0 106 -1 110 -26 130 -24 19
-40 21 -149 21 -109 0 -125 -2 -149 -21z"/>
<path d="M8215 765 c-22 -21 -25 -33 -25 -103 0 -71 2 -81 26 -103 24 -22 34
-24 151 -27 80 -2 121 -7 112 -13 -8 -5 -34 -9 -59 -9 -54 0 -73 -11 -68 -36
5 -29 116 -27 155 2 28 21 28 22 31 143 3 118 2 122 -22 146 -24 24 -30 25
-151 25 -120 0 -127 -1 -150 -25z m265 -44 c5 -11 10 -47 10 -80 l0 -61 -94 0
c-52 0 -106 4 -120 10 -24 9 -26 14 -26 68 0 32 5 63 12 70 8 8 47 12 110 12
86 0 98 -2 108 -19z"/>
<path d="M8642 774 c-19 -13 -23 -23 -20 -62 3 -40 7 -49 31 -60 16 -8 73 -16
128 -19 96 -6 99 -7 99 -29 0 -24 0 -24 -129 -24 -109 0 -130 -3 -135 -16 -3
-9 -4 -20 0 -25 3 -5 64 -9 135 -9 166 0 189 10 189 82 0 57 -30 72 -155 78
-94 5 -100 6 -103 28 -3 20 0 22 50 22 56 0 80 12 71 36 -8 21 -131 19 -161
-2z"/>
</g>
</svg>
